<svg width="31" height="31" viewBox="0 0 31 31" fill="none" xmlns="http://www.w3.org/2000/svg">
<mask id="mask0_1623_3" style="mask-type:luminance" maskUnits="userSpaceOnUse" x="14" y="0" width="17" height="31">
<path d="M14.3334 0.525391H30.6407V30.4785H14.3334V0.525391Z" fill="white"/>
</mask>
<g mask="url(#mask0_1623_3)">
<path d="M29.6407 30.3952C29.4219 30.4004 29.2396 30.3223 29.0834 30.1712L15 16.0566C14.849 15.9004 14.7709 15.7181 14.7709 15.4993C14.7709 15.2858 14.849 15.0983 15 14.9473L29.0834 0.832682C29.2396 0.676432 29.4219 0.603516 29.6407 0.603516C29.8594 0.603516 30.0417 0.681641 30.198 0.832682C30.349 0.983724 30.4271 1.17122 30.4271 1.38477C30.4271 1.60352 30.349 1.79102 30.198 1.94206L16.6667 15.4993L30.198 29.0566C30.4427 29.3066 30.5 29.5931 30.3646 29.916C30.2344 30.2389 29.9896 30.4004 29.6407 30.3952Z" fill="#C5C5C5"/>
</g>
<mask id="mask1_1623_3" style="mask-type:luminance" maskUnits="userSpaceOnUse" x="0" y="0" width="17" height="31">
<path d="M0.692749 0.525391H17V30.4785H0.692749V0.525391Z" fill="white"/>
</mask>
<g mask="url(#mask1_1623_3)">
<path d="M1.47404 30.3952C1.12508 30.4004 0.885495 30.2389 0.750079 29.916C0.614663 29.5931 0.671954 29.3066 0.921954 29.0566L14.448 15.4993L0.921954 1.94206C0.765705 1.79102 0.692787 1.60352 0.692787 1.38477C0.692787 1.17122 0.765705 0.983724 0.921954 0.832682C1.073 0.676432 1.26049 0.603516 1.47404 0.603516C1.69279 0.603516 1.87508 0.676432 2.03133 0.832682L16.1147 14.9473C16.2657 15.0983 16.3438 15.2858 16.3438 15.4993C16.3438 15.7181 16.2657 15.9004 16.1147 16.0566L2.03133 30.1712C1.87508 30.3223 1.69279 30.4004 1.47404 30.3952Z" fill="#C5C5C5"/>
</g>
</svg>
