<svg width="271" height="271" viewBox="0 0 271 271" fill="none" xmlns="http://www.w3.org/2000/svg">
<mask id="mask0_1606_2" style="mask-type:luminance" maskUnits="userSpaceOnUse" x="0" y="0" width="271" height="271">
<path d="M0.885437 0.458984H270.448V270.027H0.885437V0.458984Z" fill="white"/>
</mask>
<g mask="url(#mask0_1606_2)">
<mask id="mask1_1606_2" style="mask-type:luminance" maskUnits="userSpaceOnUse" x="0" y="0" width="271" height="271">
<path d="M135.667 0.458984C61.2292 0.458984 0.885437 60.8027 0.885437 135.24C0.885437 209.683 61.2292 270.027 135.667 270.027C210.104 270.027 270.448 209.683 270.448 135.24C270.448 60.8027 210.104 0.458984 135.667 0.458984Z" fill="white"/>
</mask>
<g mask="url(#mask1_1606_2)">
<path d="M0.885437 0.458984H270.448V270.027H0.885437V0.458984Z" fill="#DFDFDF"/>
</g>
</g>
<mask id="mask2_1606_2" style="mask-type:luminance" maskUnits="userSpaceOnUse" x="68" y="75" width="125" height="126">
<path d="M68.9062 75.666H193V200.359H68.9062V75.666Z" fill="white"/>
</mask>
<g mask="url(#mask2_1606_2)">
<path d="M192.615 106.15C192.615 104.447 191.234 103.067 189.531 103.067C188.781 103.067 188.099 103.333 187.562 103.775C186.88 104.343 186.448 105.197 186.448 106.15V150.473L181.156 144.515L174.99 137.567L156.672 116.932C156.073 116.26 155.208 115.88 154.318 115.895C153.417 115.911 152.573 116.312 151.995 116.999L126.74 147.223L112.12 133.546C111.51 132.973 110.687 132.671 109.849 132.718C109.01 132.765 108.224 133.15 107.677 133.786L86.5937 158.218V89.8066C86.5937 89.0775 86.7083 88.3743 86.9166 87.7129C87.8073 84.9056 90.4427 82.8639 93.5416 82.8639H167.682C168.427 82.8639 169.115 82.5983 169.646 82.1556C170.328 81.5879 170.766 80.7337 170.766 79.7806C170.766 78.0775 169.385 76.6973 167.682 76.6973H93.5469C87 76.6973 81.5521 81.5202 80.5833 87.8014C74.0573 88.5462 68.9739 94.1035 68.9739 100.822V186.781C68.9739 194.01 74.8541 199.895 82.0885 199.895H168.042C174.594 199.895 180.036 195.067 181.005 188.786C187.531 188.041 192.615 182.489 192.615 175.765V166.187C192.703 164.499 192.708 162.692 192.615 160.76V106.15ZM168.042 193.723H82.0885C78.2552 193.723 75.1406 190.609 75.1406 186.781V100.822C75.1406 97.5671 77.401 94.8275 80.4323 94.0827V175.765C80.4323 182.583 85.6614 188.197 92.3229 188.817C92.5156 188.854 92.7135 188.88 92.9219 188.88H93.4219C93.4635 188.88 93.5052 188.88 93.5469 188.88C93.5885 188.88 93.6302 188.88 93.6719 188.88H174.661C173.771 191.682 171.141 193.723 168.042 193.723Z" fill="white"/>
</g>
<path d="M104.776 91.1621C102.063 91.1621 99.5834 92.1934 97.7136 93.8809C95.5834 95.8079 94.2448 98.5944 94.2448 101.693C94.2448 107.506 98.9636 112.225 104.776 112.225C110.594 112.225 115.313 107.506 115.313 101.693C115.313 98.5944 113.974 95.8079 111.844 93.8809C109.974 92.1934 107.495 91.1621 104.776 91.1621ZM104.776 107.329C101.672 107.329 99.1459 104.803 99.1459 101.693C99.1459 98.5892 101.672 96.0632 104.776 96.0632C107.885 96.0632 110.411 98.5892 110.411 101.693C110.411 104.803 107.885 107.329 104.776 107.329Z" fill="white"/>
<mask id="mask3_1606_2" style="mask-type:luminance" maskUnits="userSpaceOnUse" x="175" y="70" width="28" height="27">
<path d="M175.667 70.5684H202.688V97.0007H175.667V70.5684Z" fill="white"/>
</mask>
<g mask="url(#mask3_1606_2)">
<path d="M199.281 80.3184H192.615V73.6517C192.615 71.9486 191.234 70.5684 189.531 70.5684C187.823 70.5684 186.443 71.9486 186.443 73.6517V80.3184H179.776C178.073 80.3184 176.693 81.6986 176.693 83.4017C176.693 85.11 178.073 86.485 179.776 86.485H186.443V93.1517C186.443 94.86 187.823 96.2402 189.531 96.2402C191.234 96.2402 192.615 94.86 192.615 93.1517V86.485H199.281C200.984 86.485 202.365 85.11 202.365 83.4017C202.365 81.6986 200.984 80.3184 199.281 80.3184Z" fill="white"/>
</g>
</svg>
