<svg width="55" height="55" viewBox="0 0 55 55" fill="none" xmlns="http://www.w3.org/2000/svg">
<mask id="mask0_1589_863" style="mask-type:luminance" maskUnits="userSpaceOnUse" x="0" y="0" width="55" height="55">
<path d="M0 0.728516H54.6198V54.666H0V0.728516Z" fill="white"/>
</mask>
<g mask="url(#mask0_1589_863)">
<path d="M27.8177 0.75C26.9375 0.75 26.0573 0.786458 25.1771 0.869792C24.3021 0.958333 23.4323 1.08333 22.5677 1.25C21.7031 1.42187 20.849 1.63542 20.0052 1.88542C19.1563 2.14063 18.3281 2.43229 17.5156 2.77083C16.6979 3.10417 15.901 3.47917 15.125 3.89062C14.3438 4.30729 13.5885 4.75521 12.8542 5.24479C12.1198 5.72917 11.4115 6.25521 10.7292 6.8125C10.0469 7.36979 9.39583 7.95833 8.77083 8.57812C8.14583 9.20312 7.55208 9.85417 6.98958 10.5312C6.43229 11.2135 5.90625 11.9167 5.41146 12.651C4.92187 13.3802 4.46875 14.1354 4.05208 14.9115C3.63021 15.6875 3.25521 16.4844 2.91667 17.2969C2.57813 18.1094 2.27604 18.9375 2.02083 19.7812C1.76042 20.625 1.54687 21.474 1.375 22.3385C1.19792 23.2031 1.06771 24.0729 0.979167 24.9531C0.890625 25.8281 0.848959 26.7083 0.84375 27.5885C0.84375 28.4688 0.885417 29.349 0.96875 30.2292C1.05208 31.1042 1.18229 31.974 1.35417 32.8385C1.52083 33.7031 1.73437 34.5573 1.98958 35.401C2.24479 36.2448 2.53646 37.0729 2.875 37.8906C3.20833 38.7031 3.58333 39.5 4 40.2812C4.41146 41.0573 4.86458 41.8125 5.35417 42.5469C5.84375 43.2813 6.36458 43.9896 6.92188 44.6719C7.47917 45.3542 8.07292 46.0052 8.69271 46.6302C9.31771 47.2552 9.96875 47.8438 10.6458 48.4062C11.3281 48.9635 12.0365 49.4896 12.7656 49.9844C13.5 50.474 14.2552 50.9271 15.0312 51.3438C15.8073 51.7604 16.599 52.1354 17.4167 52.474C18.2292 52.8125 19.0573 53.1094 19.901 53.3698C20.7448 53.625 21.599 53.8385 22.4635 54.0104C23.3281 54.1823 24.1979 54.3125 25.0729 54.401C25.9479 54.4896 26.8281 54.5313 27.7083 54.5365C28.5938 54.5365 29.4688 54.4948 30.349 54.4062C31.224 54.3229 32.0938 54.1927 32.9583 54.0208C33.8229 53.849 34.6771 53.6354 35.5208 53.3802C36.3646 53.1302 37.1979 52.8333 38.0104 52.4948C38.8229 52.1562 39.6198 51.7812 40.3958 51.3698C41.1771 50.9531 41.9323 50.5 42.6615 50.0104C43.3958 49.5208 44.1042 49 44.7865 48.4375C45.4688 47.8802 46.1198 47.2917 46.7448 46.6667C47.3646 46.0469 47.9583 45.3906 48.5156 44.7135C49.0781 44.0313 49.6042 43.3229 50.0938 42.5938C50.5833 41.8594 51.0365 41.1042 51.4479 40.3281C51.8646 39.5521 52.2448 38.7552 52.5781 37.9375C52.9167 37.125 53.2135 36.2969 53.4688 35.4531C53.724 34.6094 53.9375 33.7552 54.1146 32.8906C54.2865 32.026 54.4115 31.1562 54.5 30.2812C54.5885 29.401 54.6302 28.526 54.6302 27.6406C54.6302 26.7656 54.5833 25.8854 54.4948 25.0104C54.4115 24.1406 54.2813 23.2708 54.1094 22.4115C53.9375 21.5469 53.724 20.6979 53.4635 19.8542C53.2083 19.0156 52.9167 18.1875 52.5781 17.375C52.2448 16.5625 51.8646 15.7708 51.4531 14.9948C51.0417 14.2187 50.5885 13.4687 50.099 12.7396C49.6146 12.0052 49.0885 11.3021 48.5365 10.6198C47.9792 9.94271 47.3906 9.29167 46.7708 8.66667C46.1458 8.04688 45.5 7.45313 44.8229 6.89583C44.1406 6.33854 43.4375 5.8125 42.7083 5.32292C41.9792 4.83333 41.2292 4.38021 40.4531 3.96354C39.6823 3.54688 38.8854 3.17187 38.0781 2.83333C37.2656 2.49479 36.4427 2.19271 35.599 1.9375C34.7604 1.67708 33.9115 1.46354 33.0469 1.28646C32.1875 1.11458 31.3229 0.979166 30.4479 0.890625C29.5729 0.802082 28.6979 0.755208 27.8177 0.75ZM27.8177 49.526C27.099 49.526 26.3854 49.4948 25.6667 49.4271C24.9531 49.3594 24.2448 49.2604 23.5417 49.1198C22.8385 48.9844 22.1406 48.8125 21.4531 48.6042C20.7656 48.401 20.0885 48.1615 19.4271 47.8906C18.7604 47.6146 18.1094 47.3125 17.4792 46.974C16.8438 46.6406 16.2292 46.276 15.6302 45.8802C15.0313 45.4792 14.4531 45.0573 13.8958 44.6042C13.3385 44.151 12.8073 43.6719 12.2969 43.1667C11.7865 42.6615 11.3021 42.1302 10.849 41.5781C10.3906 41.026 9.95833 40.4479 9.55729 39.8542C9.15625 39.2604 8.78646 38.6458 8.44792 38.0156C8.10417 37.3802 7.79688 36.7344 7.52083 36.0729C7.23958 35.4115 7 34.7396 6.78646 34.0521C6.57812 33.3646 6.40104 32.6719 6.25521 31.9688C6.11458 31.2656 6.00521 30.5573 5.93229 29.8385C5.85937 29.125 5.82292 28.4115 5.81771 27.6927C5.8125 26.974 5.84896 26.2604 5.91667 25.5469C5.98438 24.8281 6.08333 24.1198 6.22396 23.4167C6.35937 22.7135 6.53125 22.0156 6.73438 21.3281C6.94271 20.6406 7.18229 19.9635 7.45312 19.3021C7.72396 18.6354 8.02604 17.9844 8.36458 17.3542C8.69792 16.7188 9.06771 16.1042 9.46354 15.5052C9.85938 14.9063 10.2813 14.3281 10.7344 13.7708C11.1875 13.2135 11.6667 12.6823 12.1719 12.1719C12.6771 11.6615 13.2083 11.1771 13.7604 10.7188C14.3125 10.2604 14.8906 9.83333 15.4844 9.43229C16.0781 9.03125 16.6927 8.66146 17.3229 8.31771C17.9531 7.97917 18.6042 7.66667 19.2656 7.39062C19.9271 7.11458 20.599 6.86979 21.2865 6.65625C21.9688 6.44792 22.6667 6.27083 23.3698 6.125C24.0729 5.98438 24.7813 5.875 25.4948 5.80208C26.2083 5.72917 26.9271 5.6875 27.6406 5.6875C28.3594 5.68229 29.0781 5.71354 29.7917 5.78125C30.5052 5.84896 31.2135 5.95313 31.9219 6.08854C32.625 6.22396 33.3229 6.39583 34.0104 6.60417C34.6979 6.80729 35.375 7.04688 36.0365 7.31771C36.7031 7.58854 37.349 7.89583 37.9844 8.22917C38.6198 8.5625 39.2344 8.93229 39.8333 9.32812C40.4323 9.72396 41.0104 10.1458 41.5677 10.599C42.125 11.0521 42.6563 11.5313 43.1667 12.0365C43.6771 12.5417 44.1615 13.0729 44.6198 13.625C45.0781 14.1771 45.5052 14.75 45.9062 15.3438C46.3073 15.9427 46.6823 16.5521 47.0208 17.1875C47.3646 17.8177 47.6719 18.4635 47.9479 19.125C48.2292 19.7865 48.474 20.4635 48.6823 21.1458C48.8958 21.8333 49.0729 22.526 49.2188 23.2292C49.3594 23.9323 49.4688 24.6406 49.5417 25.3542C49.6146 26.0729 49.6562 26.7865 49.6562 27.5052C49.6615 28.224 49.625 28.9375 49.5573 29.651C49.4896 30.3698 49.3854 31.0781 49.25 31.7812C49.1094 32.4844 48.9375 33.1823 48.7344 33.8698C48.526 34.5573 48.2865 35.2344 48.0156 35.8958C47.7448 36.5625 47.4427 37.2083 47.1042 37.8438C46.7708 38.4792 46.401 39.0938 46.0052 39.6927C45.6094 40.2917 45.1875 40.8698 44.7344 41.4271C44.2813 41.9844 43.8021 42.5208 43.2969 43.0312C42.7917 43.5417 42.2656 44.0208 41.7135 44.4792C41.1615 44.9375 40.5885 45.3698 39.9896 45.7708C39.3958 46.1771 38.7865 46.5469 38.151 46.8906C37.5208 47.2292 36.875 47.5417 36.2135 47.8229C35.5521 48.099 34.8802 48.3438 34.1927 48.5573C33.5104 48.7708 32.8125 48.9531 32.1094 49.0938C31.4063 49.2396 30.6979 49.349 29.9844 49.4271C29.2708 49.5 28.5573 49.5417 27.8385 49.5469L27.8177 49.526Z" fill="#FF5757"/>
</g>
<path d="M24.1771 27.6406C24.0781 27.526 23.9896 27.4219 23.8958 27.3281C21.7083 25.1458 19.5833 23.026 17.4271 20.8854C16.8385 20.3802 16.5364 19.7396 16.5208 18.9635C16.5104 18.4687 16.6458 18.0104 16.9114 17.5938C17.1771 17.1771 17.5364 16.8698 17.9896 16.6667C18.4427 16.4635 18.9114 16.4063 19.401 16.4844C19.8906 16.5625 20.3177 16.7708 20.6823 17.1094C21.4479 17.8385 22.1406 18.5625 22.8646 19.2917L27.4583 23.8802L27.6875 24.099L28.0052 23.7917L34.5573 17.2396C34.9167 16.8385 35.3594 16.5885 35.8854 16.4844C36.4114 16.3802 36.9114 16.4427 37.3958 16.6719C37.5781 16.7448 37.7448 16.8385 37.901 16.9531C38.0573 17.0677 38.1979 17.1979 38.3229 17.3438C38.4479 17.4896 38.5573 17.651 38.6458 17.8177C38.7344 17.9896 38.8021 18.1719 38.8489 18.3594C38.8958 18.5469 38.9219 18.7344 38.9219 18.9323C38.9271 19.125 38.9062 19.3125 38.8594 19.5052C38.8177 19.6927 38.7552 19.8698 38.6719 20.0469C38.5833 20.2187 38.4792 20.3802 38.3594 20.5312C38.25 20.6615 38.1302 20.7917 38 20.9062L31.6927 27.1927L31.2552 27.6354L31.5208 27.9167L37.3489 33.7083C37.6719 34.0365 38.0104 34.349 38.3125 34.6875C38.4583 34.8438 38.5781 35.0156 38.6771 35.2031C38.776 35.3906 38.8489 35.5833 38.8958 35.7917C38.9427 35.9948 38.9635 36.2031 38.9583 36.4115C38.9531 36.625 38.9219 36.8281 38.8646 37.0312C38.8073 37.2344 38.7239 37.4271 38.6146 37.6094C38.5104 37.7917 38.3802 37.9531 38.2344 38.1042C38.0833 38.25 37.9167 38.3802 37.7344 38.4844C37.5521 38.5938 37.3594 38.6719 37.1562 38.7292C36.7292 38.8698 36.2917 38.8854 35.8542 38.776C35.4167 38.6667 35.0364 38.4479 34.7239 38.1198C33.5989 37.0104 32.4844 35.8906 31.3646 34.7708L27.9792 31.3854L27.75 31.1719L27.4323 31.474L20.8802 38.026C20.5469 38.375 20.151 38.6198 19.6875 38.75C19.1667 38.8958 18.6562 38.875 18.1562 38.6875C17.651 38.5 17.25 38.1823 16.9531 37.7344C16.6562 37.2865 16.5156 36.7969 16.5417 36.2604C16.5625 35.7188 16.7396 35.2396 17.0729 34.8229C17.2239 34.6302 17.3906 34.4531 17.5677 34.2812L23.8281 28.0365C23.901 27.9115 24.0469 27.7813 24.1771 27.6406Z" fill="#FF5757"/>
</svg>
