<svg width="19" height="27" viewBox="0 0 19 27" fill="none" xmlns="http://www.w3.org/2000/svg">
<mask id="mask0_1573_2" style="mask-type:luminance" maskUnits="userSpaceOnUse" x="0" y="0" width="19" height="27">
<path d="M0.453125 0.103516H19V26.0618H0.453125V0.103516Z" fill="white"/>
</mask>
<g mask="url(#mask0_1573_2)">
<path d="M9.57815 26.0312C9.37502 26.0312 9.19273 25.9219 9.09377 25.7448C8.53648 24.7344 7.6719 23.3646 6.6771 21.776C3.90106 17.3646 0.447937 11.875 0.447937 9.27083C0.447937 4.23438 4.5469 0.140625 9.57815 0.140625C14.6146 0.140625 18.7084 4.23438 18.7084 9.27083C18.7084 12.0104 15.4531 17.1302 12.5834 21.651C11.5938 23.2031 10.6615 24.6719 10.0625 25.7448C9.96877 25.9219 9.78127 26.0312 9.57815 26.0312ZM9.57815 1.25C5.15627 1.25 1.55731 4.84896 1.55731 9.27083C1.55731 11.5521 5.05731 17.1198 7.6146 21.1875C8.36981 22.3854 9.0469 23.4635 9.57815 24.3646C10.1563 23.401 10.8854 22.2552 11.6459 21.0573C14.1563 17.099 17.599 11.6875 17.599 9.27083C17.599 4.84896 14 1.25 9.57815 1.25Z" fill="#3B3B3B"/>
</g>
<path d="M9.5781 13.3327C7.16144 13.3327 5.19269 11.3639 5.19269 8.94727C5.19269 6.52539 7.16144 4.55664 9.5781 4.55664C12 4.55664 13.9687 6.52539 13.9687 8.94727C13.9687 11.3639 12 13.3327 9.5781 13.3327ZM9.5781 5.67122C7.77081 5.67122 6.30206 7.13997 6.30206 8.94727C6.30206 10.7546 7.77081 12.2233 9.5781 12.2233C11.3854 12.2233 12.8594 10.7546 12.8594 8.94727C12.8594 7.13997 11.3854 5.67122 9.5781 5.67122Z" fill="#3B3B3B"/>
</svg>
