<svg width="36" height="27" viewBox="0 0 36 27" fill="none" xmlns="http://www.w3.org/2000/svg">
<mask id="mask0_1_478" style="mask-type:luminance" maskUnits="userSpaceOnUse" x="19" y="3" width="17" height="17">
<path d="M19.3333 3.61462H35.3333V19.6146H19.3333V3.61462Z" fill="white"/>
</mask>
<g mask="url(#mask0_1_478)">
<mask id="mask1_1_478" style="mask-type:luminance" maskUnits="userSpaceOnUse" x="-7" y="-8" width="45" height="45">
<path d="M10.9687 -7.93225L37.7604 9.46358L20.3594 36.2605L-6.4323 18.8594L10.9687 -7.93225Z" fill="white"/>
</mask>
<g mask="url(#mask1_1_478)">
<mask id="mask2_1_478" style="mask-type:luminance" maskUnits="userSpaceOnUse" x="-7" y="-8" width="45" height="45">
<path d="M10.9687 -7.93225L37.7604 9.46358L20.3594 36.2605L-6.4323 18.8594L10.9687 -7.93225Z" fill="white"/>
</mask>
<g mask="url(#mask2_1_478)">
<path d="M31.5938 5.46882C31.1875 5.20319 30.7656 4.98444 30.3125 4.80215C29.8646 4.62507 29.4063 4.49486 28.9323 4.40632C28.4583 4.31778 27.9792 4.27611 27.4948 4.28132C27.0156 4.28653 26.5365 4.34382 26.0625 4.44278C25.5938 4.54173 25.1354 4.68757 24.6927 4.88028C24.25 5.06778 23.8281 5.30215 23.4323 5.57298C23.0313 5.84903 22.6667 6.15632 22.3281 6.50528C21.9948 6.84903 21.6927 7.22403 21.4323 7.63028C21.1667 8.03132 20.9479 8.4584 20.7656 8.90632C20.5886 9.35424 20.4583 9.81778 20.3698 10.2917C20.2813 10.7657 20.2396 11.2449 20.2448 11.7292C20.25 12.2084 20.3073 12.6876 20.4063 13.1563C20.5052 13.6303 20.6511 14.0886 20.8438 14.5313C21.0313 14.974 21.2656 15.3959 21.5365 15.7917C21.8125 16.1876 22.1198 16.5574 22.4688 16.8959C22.8125 17.2292 23.1875 17.5313 23.5938 17.7917C23.9948 18.0574 24.4219 18.2761 24.8698 18.4532C25.3177 18.6355 25.7813 18.7657 26.2552 18.8542C26.7292 18.9428 27.2083 18.9844 27.6927 18.974C28.1719 18.9688 28.6511 18.9167 29.125 18.8178C29.5938 18.7136 30.0521 18.5678 30.4948 18.3803C30.9375 18.1876 31.3594 17.9584 31.7552 17.6824C32.1563 17.4115 32.5208 17.099 32.8594 16.7553C33.1927 16.4115 33.4948 16.0313 33.7552 15.6303C34.0208 15.224 34.2396 14.7969 34.4167 14.349C34.599 13.9011 34.7292 13.4428 34.8177 12.9688C34.9063 12.4897 34.9479 12.0157 34.9375 11.5313C34.9323 11.0469 34.8802 10.573 34.7813 10.099C34.6771 9.63028 34.5313 9.17194 34.3438 8.72923C34.1511 8.28653 33.9219 7.86465 33.6458 7.46882C33.375 7.06778 33.0625 6.70319 32.7188 6.36465C32.375 6.03132 32 5.72924 31.5938 5.46882ZM27.6302 14.8074C27.4271 14.6772 27.2969 14.4897 27.25 14.2501L26.7552 11.9324C26.6875 11.6147 26.7448 11.3178 26.9167 11.0469L29.0938 7.69798C29.2292 7.50007 29.4167 7.38028 29.6511 7.3334C29.8854 7.28653 30.099 7.32819 30.3021 7.4584C30.5 7.58861 30.6302 7.7709 30.6823 8.00528C30.7344 8.23444 30.6979 8.45319 30.5729 8.65632L28.5313 11.8022L28.974 13.8855C29.0573 14.2709 28.9323 14.573 28.6094 14.7969C28.2865 15.0157 27.9583 15.0209 27.6302 14.8074Z" fill="#7D8999"/>
</g>
</g>
</g>
<mask id="mask3_1_478" style="mask-type:luminance" maskUnits="userSpaceOnUse" x="0" y="0" width="26" height="27">
<path d="M0.666672 0.947937H26V26.2813H0.666672V0.947937Z" fill="white"/>
</mask>
<g mask="url(#mask3_1_478)">
<mask id="mask4_1_478" style="mask-type:luminance" maskUnits="userSpaceOnUse" x="-7" y="-8" width="45" height="45">
<path d="M10.9687 -7.93225L37.7604 9.46358L20.3594 36.2605L-6.4323 18.8594L10.9687 -7.93225Z" fill="white"/>
</mask>
<g mask="url(#mask4_1_478)">
<mask id="mask5_1_478" style="mask-type:luminance" maskUnits="userSpaceOnUse" x="-7" y="-8" width="45" height="45">
<path d="M10.9687 -7.93225L37.7604 9.46358L20.3594 36.2605L-6.4323 18.8594L10.9687 -7.93225Z" fill="white"/>
</mask>
<g mask="url(#mask5_1_478)">
<path d="M25.3385 25.3177C25.4271 25.125 25.4688 24.9271 25.4688 24.7188L25.474 20.4844C24.5365 20.2604 23.6563 19.8958 22.8333 19.3906C22.7448 19.7969 22.4948 20.026 22.0781 20.0729L15.625 20.1563C15.4479 20.1563 15.2865 20.1094 15.1406 20.0104C14.974 19.9063 14.8594 19.7604 14.7917 19.5781C14.724 19.3958 14.7188 19.2135 14.776 19.026C14.8281 18.8385 14.9323 18.6875 15.0885 18.5677C15.2448 18.4531 15.4219 18.3906 15.6146 18.3906L21.4219 18.3229C20.2969 17.2865 19.4844 16.0469 18.9896 14.599L15.7188 14.6094C15.5417 14.6146 15.3802 14.5677 15.2344 14.4688C15.0729 14.3646 14.9583 14.2188 14.8854 14.0365C14.8177 13.8542 14.8125 13.6667 14.8698 13.4792C14.9219 13.2917 15.0313 13.1406 15.1875 13.0208C15.3438 12.9062 15.5156 12.849 15.7135 12.849L18.5677 12.8385C18.3958 11.5573 18.4896 10.2969 18.8542 9.05208L15.8125 9.06771C15.6406 9.06771 15.4792 9.02083 15.3333 8.92188C15.1667 8.81771 15.0521 8.67188 14.9844 8.48958C14.9167 8.30729 14.9115 8.125 14.9635 7.9375C15.0208 7.75 15.125 7.59375 15.2813 7.47917C15.4375 7.35937 15.6146 7.30208 15.8073 7.30208L19.5938 7.28646C19.7031 7.07813 19.8177 6.86979 19.9531 6.66667C20.5885 5.6875 21.3854 4.85937 22.3385 4.1875C23.2917 3.51562 24.3385 3.04688 25.4792 2.77604C25.4219 2.42188 25.2552 2.125 24.9844 1.89063C24.7083 1.65625 24.3906 1.53646 24.0313 1.54167L5.80209 1.60938C5.60938 1.61458 5.42188 1.65104 5.23959 1.72396C5.0625 1.80208 4.90105 1.91146 4.76563 2.04688C4.63021 2.1875 4.52084 2.34375 4.44792 2.52604C4.375 2.70312 4.33334 2.89062 4.33334 3.08854V6.42708L2.51042 6.43229C2.1823 6.43229 1.90626 6.54688 1.67188 6.77604C1.43751 7.00521 1.32292 7.28646 1.32292 7.61458C1.32292 7.94271 1.44271 8.22396 1.67709 8.45313C1.91146 8.68229 2.19271 8.79167 2.52084 8.78646L4.32813 8.78125L4.32292 12.7865L2.58855 12.7917C2.26042 12.7865 1.97917 12.901 1.75001 13.1354C1.51563 13.3646 1.40105 13.6458 1.40105 13.974C1.40105 14.3021 1.52084 14.5781 1.75521 14.8073C1.98959 15.0365 2.27084 15.151 2.59896 15.1458L4.32292 15.1354L4.31771 19.1458L2.66667 19.151C2.33855 19.151 2.06251 19.2656 1.83334 19.4948C1.60417 19.7292 1.48959 20.0052 1.4948 20.3281C1.4948 20.6563 1.60938 20.9323 1.83855 21.1615C2.07292 21.3906 2.34896 21.5052 2.67709 21.5L4.31251 21.4948V24.7917C4.31251 24.9896 4.34375 25.1771 4.42188 25.3594C4.4948 25.5365 4.59896 25.6979 4.73959 25.8333C4.875 25.974 5.03646 26.0781 5.21355 26.151C5.39584 26.2292 5.58334 26.2656 5.77605 26.2656L24 26.1927C24.2917 26.1927 24.5573 26.1094 24.8021 25.9531C25.0417 25.7917 25.224 25.5833 25.3385 25.3177ZM7.5573 6.32813C7.63021 6.21354 7.72396 6.11979 7.84376 6.05208C7.95834 5.97917 8.08334 5.94271 8.21876 5.92708C8.35417 5.91667 8.48438 5.9375 8.61459 5.98438C8.73959 6.03125 8.84896 6.10417 8.94271 6.20833L9.94271 7.28125L11.7083 5.34375C11.875 5.16667 12.0781 5.07812 12.3177 5.06771C12.5625 5.05729 12.7708 5.13542 12.9479 5.29688C13.1302 5.46354 13.224 5.66146 13.2344 5.90625C13.2448 6.14583 13.1719 6.35938 13.0104 6.53646L10.5938 9.17708C10.4219 9.36458 10.2031 9.45833 9.94792 9.46354C9.69271 9.46354 9.47396 9.36979 9.29688 9.18229L7.64584 7.40625C7.51042 7.26042 7.4323 7.08333 7.41667 6.88021C7.40105 6.68229 7.44792 6.49479 7.5573 6.32813ZM7.45834 11.8698C7.53126 11.7552 7.63021 11.6667 7.7448 11.5938C7.85938 11.526 7.98959 11.4844 8.12501 11.474C8.26042 11.4635 8.39063 11.4792 8.51563 11.526C8.64063 11.5781 8.75001 11.651 8.84376 11.75L9.84376 12.8229L11.6146 10.8906C11.7813 10.7135 11.9844 10.6146 12.224 10.6042C12.4688 10.5937 12.6823 10.6719 12.8594 10.8333C13.0417 11 13.1354 11.2031 13.1458 11.4479C13.1563 11.6927 13.0781 11.901 12.9167 12.0833L10.5052 14.724C10.3281 14.9115 10.1146 15.0052 9.85417 15.0104C9.59896 15.0104 9.38021 14.9167 9.20834 14.7292L7.5573 12.9531C7.41667 12.8073 7.33855 12.6302 7.32292 12.4271C7.30209 12.2292 7.34896 12.0417 7.45834 11.8698ZM12.9896 18.4427L10.5781 21.0781C10.401 21.2708 10.1875 21.3646 9.9323 21.3646C9.67188 21.3646 9.45834 21.2708 9.28126 21.0833L7.63021 19.3125C7.46355 19.1302 7.38542 18.9219 7.39584 18.6771C7.40105 18.4323 7.4948 18.2292 7.67188 18.0625C7.85417 17.8958 8.0625 17.8177 8.3073 17.8281C8.55209 17.8333 8.75521 17.9271 8.92188 18.1094L9.92188 19.1823L11.6927 17.2448C11.8438 17.0781 12.0365 16.9844 12.2656 16.9688C12.4948 16.9479 12.6979 17.0104 12.8802 17.151C13.0573 17.2917 13.1667 17.474 13.2083 17.6979C13.2448 17.9219 13.2031 18.1302 13.0781 18.3229C13.0521 18.3646 13.026 18.4063 12.9896 18.4427Z" fill="#7D8999"/>
</g>
</g>
</g>
</svg>
