<svg width="36" height="26" viewBox="0 0 36 26" fill="none" xmlns="http://www.w3.org/2000/svg">
<mask id="mask0_1545_2" style="mask-type:luminance" maskUnits="userSpaceOnUse" x="19" y="3" width="17" height="17">
<path d="M19.3334 3.33398H35.3334V19.334H19.3334V3.33398Z" fill="white"/>
</mask>
<g mask="url(#mask0_1545_2)">
<mask id="mask1_1545_2" style="mask-type:luminance" maskUnits="userSpaceOnUse" x="-7" y="-9" width="45" height="45">
<path d="M10.9688 -8.21289L37.7605 9.18294L20.3594 35.9798L-6.43225 18.5788L10.9688 -8.21289Z" fill="white"/>
</mask>
<g mask="url(#mask1_1545_2)">
<mask id="mask2_1545_2" style="mask-type:luminance" maskUnits="userSpaceOnUse" x="-7" y="-9" width="45" height="45">
<path d="M10.9688 -8.21289L37.7605 9.18294L20.3594 35.9798L-6.43225 18.5788L10.9688 -8.21289Z" fill="white"/>
</mask>
<g mask="url(#mask2_1545_2)">
<path d="M31.5938 5.18793C31.1875 4.92231 30.7657 4.70356 30.3125 4.52127C29.8646 4.34418 29.4063 4.21398 28.9323 4.12543C28.4584 4.03689 27.9792 3.99523 27.4948 4.00043C27.0157 4.00564 26.5365 4.06293 26.0625 4.16189C25.5938 4.26085 25.1354 4.40668 24.6927 4.59939C24.25 4.78689 23.8282 5.02127 23.4323 5.2921C23.0313 5.56814 22.6667 5.87543 22.3282 6.22439C21.9948 6.56814 21.6927 6.94314 21.4323 7.34939C21.1667 7.75043 20.9479 8.17752 20.7657 8.62543C20.5886 9.07335 20.4584 9.53689 20.3698 10.0109C20.2813 10.4848 20.2396 10.964 20.2448 11.4484C20.25 11.9275 20.3073 12.4067 20.4063 12.8754C20.5052 13.3494 20.6511 13.8077 20.8438 14.2504C21.0313 14.6931 21.2657 15.115 21.5365 15.5109C21.8125 15.9067 22.1198 16.2765 22.4688 16.615C22.8125 16.9484 23.1875 17.2504 23.5938 17.5109C23.9948 17.7765 24.4219 17.9952 24.8698 18.1723C25.3177 18.3546 25.7813 18.4848 26.2552 18.5734C26.7292 18.6619 27.2084 18.7036 27.6927 18.6931C28.1719 18.6879 28.6511 18.6358 29.125 18.5369C29.5938 18.4327 30.0521 18.2869 30.4948 18.0994C30.9375 17.9067 31.3594 17.6775 31.7552 17.4015C32.1563 17.1306 32.5209 16.8181 32.8594 16.4744C33.1927 16.1306 33.4948 15.7504 33.7552 15.3494C34.0209 14.9431 34.2396 14.5161 34.4167 14.0681C34.599 13.6202 34.7292 13.1619 34.8177 12.6879C34.9063 12.2088 34.9479 11.7348 34.9375 11.2504C34.9323 10.7661 34.8802 10.2921 34.7813 9.81814C34.6771 9.34939 34.5313 8.89106 34.3438 8.44835C34.1511 8.00564 33.9219 7.58377 33.6459 7.18793C33.375 6.78689 33.0625 6.42231 32.7188 6.08377C32.375 5.75043 32 5.44835 31.5938 5.18793ZM27.6302 14.5265C27.4271 14.3963 27.2969 14.2088 27.25 13.9692L26.7552 11.6515C26.6875 11.3338 26.7448 11.0369 26.9167 10.7661L29.0938 7.4171C29.2292 7.21918 29.4167 7.09939 29.6511 7.05252C29.8854 7.00564 30.099 7.04731 30.3021 7.17752C30.5 7.30773 30.6302 7.49002 30.6823 7.72439C30.7344 7.95356 30.6979 8.17231 30.5729 8.37543L28.5313 11.5213L28.974 13.6046C29.0573 13.99 28.9323 14.2921 28.6094 14.5161C28.2865 14.7348 27.9584 14.74 27.6302 14.5265Z" fill="#3F60A0"/>
</g>
</g>
</g>
<mask id="mask3_1545_2" style="mask-type:luminance" maskUnits="userSpaceOnUse" x="0" y="0" width="26" height="26">
<path d="M0.666626 0.666016H26V25.9993H0.666626V0.666016Z" fill="white"/>
</mask>
<g mask="url(#mask3_1545_2)">
<mask id="mask4_1545_2" style="mask-type:luminance" maskUnits="userSpaceOnUse" x="-7" y="-9" width="45" height="45">
<path d="M10.9687 -8.21484L37.7603 9.18099L20.3593 35.9779L-6.43237 18.5768L10.9687 -8.21484Z" fill="white"/>
</mask>
<g mask="url(#mask4_1545_2)">
<mask id="mask5_1545_2" style="mask-type:luminance" maskUnits="userSpaceOnUse" x="-7" y="-9" width="45" height="45">
<path d="M10.9687 -8.21484L37.7603 9.18099L20.3593 35.9779L-6.43237 18.5768L10.9687 -8.21484Z" fill="white"/>
</mask>
<g mask="url(#mask5_1545_2)">
<path d="M25.3385 25.036C25.427 24.8433 25.4687 24.6453 25.4687 24.437L25.4739 20.2026C24.5364 19.9787 23.6562 19.6141 22.8333 19.1089C22.7448 19.5151 22.4948 19.7443 22.0781 19.7912L15.625 19.8745C15.4479 19.8745 15.2864 19.8276 15.1406 19.7287C14.9739 19.6245 14.8593 19.4787 14.7916 19.2964C14.7239 19.1141 14.7187 18.9318 14.776 18.7443C14.8281 18.5568 14.9323 18.4058 15.0885 18.286C15.2448 18.1714 15.4218 18.1089 15.6145 18.1089L21.4218 18.0412C20.2968 17.0047 19.4843 15.7651 18.9895 14.3172L15.7187 14.3276C15.5416 14.3328 15.3802 14.286 15.2343 14.187C15.0729 14.0828 14.9583 13.937 14.8854 13.7547C14.8177 13.5724 14.8125 13.3849 14.8698 13.1974C14.9218 13.0099 15.0312 12.8589 15.1875 12.7391C15.3437 12.6245 15.5156 12.5672 15.7135 12.5672L18.5677 12.5568C18.3958 11.2756 18.4895 10.0151 18.8541 8.77035L15.8125 8.78597C15.6406 8.78597 15.4791 8.7391 15.3333 8.64014C15.1666 8.53597 15.052 8.39014 14.9843 8.20785C14.9166 8.02555 14.9114 7.84326 14.9635 7.65576C15.0208 7.46826 15.125 7.31201 15.2812 7.19743C15.4375 7.07764 15.6145 7.02035 15.8073 7.02035L19.5937 7.00472C19.7031 6.79639 19.8177 6.58805 19.9531 6.38493C20.5885 5.40576 21.3854 4.57764 22.3385 3.90576C23.2916 3.23389 24.3385 2.76514 25.4791 2.4943C25.4218 2.14014 25.2552 1.84326 24.9843 1.60889C24.7083 1.37451 24.3906 1.25472 24.0312 1.25993L5.80204 1.32764C5.60933 1.33284 5.42183 1.3693 5.23954 1.44222C5.06246 1.52035 4.901 1.62972 4.76558 1.76514C4.63017 1.90576 4.52079 2.06201 4.44788 2.2443C4.37496 2.42139 4.33329 2.60889 4.33329 2.8068V6.14535L2.51038 6.15055C2.18225 6.15055 1.90621 6.26514 1.67183 6.4943C1.43746 6.72347 1.32288 7.00472 1.32288 7.33285C1.32288 7.66097 1.44267 7.94222 1.67704 8.17139C1.91142 8.40055 2.19267 8.50993 2.52079 8.50472L4.32808 8.49951L4.32288 12.5047L2.5885 12.5099C2.26038 12.5047 1.97913 12.6193 1.74996 12.8537C1.51558 13.0828 1.401 13.3641 1.401 13.6922C1.401 14.0203 1.52079 14.2964 1.75517 14.5256C1.98954 14.7547 2.27079 14.8693 2.59892 14.8641L4.32288 14.8537L4.31767 18.8641L2.66663 18.8693C2.3385 18.8693 2.06246 18.9839 1.83329 19.2131C1.60413 19.4474 1.48954 19.7235 1.49475 20.0464C1.49475 20.3745 1.60933 20.6506 1.8385 20.8797C2.07288 21.1089 2.34892 21.2235 2.67704 21.2183L4.31246 21.2131V24.5099C4.31246 24.7078 4.34371 24.8953 4.42183 25.0776C4.49475 25.2547 4.59892 25.4162 4.73954 25.5516C4.87496 25.6922 5.03642 25.7964 5.2135 25.8693C5.39579 25.9474 5.58329 25.9839 5.776 25.9839L24 25.911C24.2916 25.911 24.5573 25.8276 24.802 25.6714C25.0416 25.5099 25.2239 25.3016 25.3385 25.036ZM7.55725 6.04639C7.63017 5.9318 7.72392 5.83805 7.84371 5.77035C7.95829 5.69743 8.08329 5.66097 8.21871 5.64535C8.35413 5.63493 8.48433 5.65576 8.61454 5.70264C8.73954 5.74951 8.84892 5.82243 8.94267 5.9266L9.94267 6.99951L11.7083 5.06201C11.875 4.88493 12.0781 4.79639 12.3177 4.78597C12.5625 4.77555 12.7708 4.85368 12.9479 5.01514C13.1302 5.1818 13.2239 5.37972 13.2343 5.62451C13.2448 5.8641 13.1718 6.07764 13.0104 6.25472L10.5937 8.89535C10.4218 9.08285 10.2031 9.17659 9.94788 9.1818C9.69267 9.1818 9.47392 9.08805 9.29683 8.90055L7.64579 7.12451C7.51038 6.97868 7.43225 6.80159 7.41663 6.59847C7.401 6.40055 7.44788 6.21305 7.55725 6.04639ZM7.45829 11.5881C7.53121 11.4735 7.63017 11.3849 7.74475 11.312C7.85933 11.2443 7.98954 11.2026 8.12496 11.1922C8.26038 11.1818 8.39058 11.1974 8.51558 11.2443C8.64058 11.2964 8.74996 11.3693 8.84371 11.4683L9.84371 12.5412L11.6145 10.6089C11.7812 10.4318 11.9843 10.3328 12.2239 10.3224C12.4687 10.312 12.6823 10.3901 12.8593 10.5516C13.0416 10.7183 13.1354 10.9214 13.1458 11.1662C13.1562 11.411 13.0781 11.6193 12.9166 11.8016L10.5052 14.4422C10.3281 14.6297 10.1145 14.7235 9.85413 14.7287C9.59892 14.7287 9.38017 14.6349 9.20829 14.4474L7.55725 12.6714C7.41663 12.5256 7.3385 12.3485 7.32288 12.1453C7.30204 11.9474 7.34892 11.7599 7.45829 11.5881ZM12.9895 18.161L10.5781 20.7964C10.401 20.9891 10.1875 21.0828 9.93225 21.0828C9.67183 21.0828 9.45829 20.9891 9.28121 20.8016L7.63017 19.0308C7.4635 18.8485 7.38538 18.6401 7.39579 18.3953C7.401 18.1506 7.49475 17.9474 7.67183 17.7808C7.85413 17.6141 8.06246 17.536 8.30725 17.5464C8.55204 17.5516 8.75517 17.6453 8.92183 17.8276L9.92183 18.9006L11.6927 16.9631C11.8437 16.7964 12.0364 16.7026 12.2656 16.687C12.4948 16.6662 12.6979 16.7287 12.8802 16.8693C13.0573 17.0099 13.1666 17.1922 13.2083 17.4162C13.2448 17.6401 13.2031 17.8485 13.0781 18.0412C13.052 18.0828 13.026 18.1245 12.9895 18.161Z" fill="#3F60A0"/>
</g>
</g>
</g>
</svg>
