<svg width="30" height="31" viewBox="0 0 30 31" fill="none" xmlns="http://www.w3.org/2000/svg">
<mask id="mask0_1573_3" style="mask-type:luminance" maskUnits="userSpaceOnUse" x="0" y="0" width="30" height="31">
<path d="M0.046875 0.849609H30V30.7975H0.046875V0.849609Z" fill="white"/>
</mask>
<g mask="url(#mask0_1573_3)">
<mask id="mask1_1573_3" style="mask-type:luminance" maskUnits="userSpaceOnUse" x="0" y="0" width="30" height="31">
<path d="M15.026 0.849609C6.75521 0.849609 0.046875 7.55273 0.046875 15.8236C0.046875 24.0944 6.75521 30.7975 15.026 30.7975C23.2969 30.7975 30 24.0944 30 15.8236C30 7.55273 23.2969 0.849609 15.026 0.849609Z" fill="white"/>
</mask>
<g mask="url(#mask1_1573_3)">
<path d="M0.046875 0.849609H30V30.7975H0.046875V0.849609Z" fill="#888888"/>
</g>
</g>
<mask id="mask2_1573_3" style="mask-type:luminance" maskUnits="userSpaceOnUse" x="6" y="17" width="17" height="7">
<path d="M6.83337 17.2129H22.8907V23.9993H6.83337V17.2129Z" fill="white"/>
</mask>
<g mask="url(#mask2_1573_3)">
<path d="M14.8698 22.8477C11.6042 22.8477 8.849 20.6497 7.99483 17.6602C7.92191 17.4102 7.69795 17.2383 7.43754 17.2383C7.05733 17.2383 6.78129 17.6081 6.88545 17.9727C7.87504 21.4518 11.0834 23.9987 14.8698 23.9987C18.6615 23.9987 21.8646 21.4518 22.8542 17.9727C22.9636 17.6081 22.6875 17.2383 22.3021 17.2383C22.0417 17.2383 21.8177 17.4102 21.7448 17.6602C20.8907 20.6497 18.1355 22.8477 14.8698 22.8477Z" fill="white"/>
</g>
<mask id="mask3_1573_3" style="mask-type:luminance" maskUnits="userSpaceOnUse" x="6" y="7" width="18" height="9">
<path d="M6 7.38086H23.3333V15.334H6V7.38086Z" fill="white"/>
</mask>
<g mask="url(#mask3_1573_3)">
<path d="M14.8698 8.54753C18.1355 8.54753 20.8907 10.7454 21.7448 13.7402C21.8177 13.985 22.0417 14.1569 22.3021 14.1569C22.6875 14.1569 22.9636 13.7923 22.8542 13.4225C21.8646 9.94857 18.6615 7.39648 14.8698 7.39648C11.0834 7.39648 7.87504 9.94857 6.88545 13.4225C6.78129 13.7923 7.05733 14.1569 7.43754 14.1569C7.69795 14.1569 7.92191 13.985 7.99483 13.7402C8.849 10.7454 11.6042 8.54753 14.8698 8.54753Z" fill="white"/>
</g>
<mask id="mask4_1573_3" style="mask-type:luminance" maskUnits="userSpaceOnUse" x="20" y="13" width="4" height="4">
<path d="M20.5 13.0312H23.8698V16.2083H20.5V13.0312Z" fill="white"/>
</mask>
<g mask="url(#mask4_1573_3)">
<path d="M22.6458 16.2038L20.5156 13.5632L22.1927 13.3027L23.8698 13.0371L23.2604 14.6204L22.6458 16.2038Z" fill="white"/>
</g>
<mask id="mask5_1573_3" style="mask-type:luminance" maskUnits="userSpaceOnUse" x="5" y="14" width="5" height="6">
<path d="M5.901 14H9.99996V19.3333H5.901V14Z" fill="white"/>
</mask>
<g mask="url(#mask5_1573_3)">
<path d="M7.26558 15.1504L8.27079 16.5202L9.27079 17.8848L7.5885 18.0723L5.901 18.2546L7.26558 15.1504Z" fill="white"/>
</g>
</svg>
