<svg width="55" height="59" viewBox="0 0 55 59" fill="none" xmlns="http://www.w3.org/2000/svg">
<mask id="mask0_1570_46" style="mask-type:luminance" maskUnits="userSpaceOnUse" x="0" y="0" width="55" height="59">
<path d="M0 0.921875H54.9271V58.6667H0V0.921875Z" fill="white"/>
</mask>
<g mask="url(#mask0_1570_46)">
<path d="M54.9219 30.9072C54.9167 31.8968 54.8646 32.8812 54.7552 33.8655C54.6511 34.8499 54.4896 35.8239 54.2761 36.7926C54.0573 37.7562 53.7917 38.7093 53.474 39.6468C53.1563 40.5843 52.7865 41.501 52.3698 42.3968C51.9531 43.2978 51.4844 44.1676 50.974 45.0114C50.4583 45.8603 49.9011 46.6728 49.2969 47.4593C48.6979 48.2458 48.0521 48.9958 47.3698 49.7093C46.6823 50.4228 45.9636 51.0999 45.2031 51.7353C44.4479 52.3708 43.6563 52.9645 42.8333 53.5166C42.0104 54.0635 41.1563 54.5687 40.2813 55.027C39.4011 55.4853 38.5 55.8916 37.5781 56.251C36.6563 56.6103 35.7188 56.9176 34.7604 57.1728C33.8073 57.428 32.8386 57.6312 31.8594 57.7822C30.8802 57.9333 29.9011 58.0322 28.9115 58.0739C27.9219 58.1155 26.9323 58.1051 25.9479 58.0426C24.9583 57.9749 23.9792 57.8551 23 57.6885C22.0261 57.5166 21.0625 57.2874 20.1146 57.0114C19.1667 56.7353 18.2344 56.4072 17.3177 56.027C16.4011 55.652 15.5104 55.2249 14.6458 54.7458C13.7761 54.2718 12.9375 53.751 12.125 53.1833C11.3177 52.6155 10.5365 52.0062 9.79168 51.3499C9.05209 50.6989 8.34376 50.0062 7.67709 49.277C7.00522 48.5478 6.38022 47.7874 5.79168 46.9853C5.20834 46.1885 4.66668 45.3603 4.17188 44.5062C3.67709 43.6468 3.22918 42.7666 2.83334 41.8603C2.4323 40.9541 2.08334 40.027 1.78647 39.0843C1.48959 38.1416 1.2448 37.1833 1.05209 36.2145C0.859385 35.2405 0.718759 34.2666 0.630218 33.277C0.546884 32.2926 0.510425 31.303 0.531259 30.3135C0.557301 29.3239 0.630218 28.3395 0.760426 27.3603C0.885426 26.376 1.06772 25.4072 1.3073 24.4437C1.54168 23.4853 1.82813 22.5374 2.16668 21.6051C2.50522 20.678 2.89063 19.7666 3.32813 18.8812C3.76563 17.9905 4.25001 17.1312 4.78126 16.2978C5.31251 15.4593 5.89064 14.6572 6.51043 13.8864C7.12501 13.1155 7.78647 12.376 8.48438 11.678C9.18751 10.9801 9.92188 10.3187 10.6927 9.69887C11.4636 9.07908 12.2708 8.50096 13.1042 7.96971C13.9375 7.43846 14.7969 6.95408 15.6875 6.51658C16.5729 6.07908 17.4844 5.68846 18.4115 5.34991C19.3438 5.01137 20.2865 4.72491 21.25 4.49054C22.2083 4.25095 23.1823 4.06866 24.1615 3.93846C25.1458 3.81346 26.1302 3.73533 27.1198 3.7145C28.1094 3.69366 29.099 3.72491 30.0833 3.80825C31.0677 3.89679 32.0469 4.03221 33.0156 4.22491C33.9896 4.41762 34.9479 4.66241 35.8906 4.95929C36.8333 5.26137 37.7604 5.60512 38.6667 6.00616C39.5729 6.402 40.4531 6.84991 41.3125 7.34471L38.5573 11.6728C35.1979 9.77179 31.5886 8.82387 27.7292 8.82908C15.5521 8.82908 5.65105 18.7301 5.65105 30.9072C5.65105 43.0791 15.5521 52.9853 27.7292 52.9853C39.9011 52.9853 49.8073 43.0791 49.8073 30.9072C49.8125 27.3187 48.9844 23.9332 47.3281 20.751L50.4115 15.902C51.8854 18.126 53.0052 20.5166 53.7708 23.0687C54.5417 25.626 54.9219 28.2353 54.9219 30.9072ZM16.9167 25.0062C16.7136 24.7353 16.4636 24.5062 16.1719 24.3343C15.8802 24.1572 15.5677 24.0426 15.2292 23.9957C14.8958 23.9437 14.5625 23.9593 14.2292 24.0426C13.9011 24.126 13.599 24.2718 13.3281 24.4749C13.0521 24.678 12.8281 24.9228 12.6563 25.2197C12.4844 25.5114 12.3698 25.8239 12.3229 26.1624C12.276 26.501 12.2969 26.8343 12.3802 27.1624C12.4636 27.4905 12.6094 27.7926 12.8177 28.0635L24.4323 43.6312C24.9427 44.3135 25.625 44.6572 26.4792 44.6572C26.5104 44.6572 26.5417 44.6572 26.5781 44.6572C27.4688 44.626 28.1563 44.2301 28.6354 43.4749L53.1563 4.91241C53.3438 4.62596 53.4688 4.31346 53.5313 3.98012C53.5938 3.64158 53.5886 3.30825 53.5156 2.97491C53.4427 2.64158 53.3073 2.33429 53.1146 2.05304C52.9167 1.77179 52.6771 1.54262 52.3854 1.36033C52.099 1.17283 51.7865 1.05304 51.4479 0.995747C51.1146 0.938455 50.7761 0.948873 50.4479 1.02179C50.1146 1.09991 49.8073 1.23533 49.5313 1.43325C49.25 1.63637 49.0208 1.88116 48.8438 2.16762L26.3125 37.5999L16.9167 25.0062Z" fill="#3F60A0"/>
</g>
</svg>
