<svg width="30" height="29" viewBox="0 0 30 29" fill="none" xmlns="http://www.w3.org/2000/svg">
<mask id="mask0_1545_3" style="mask-type:luminance" maskUnits="userSpaceOnUse" x="5" y="0" width="6" height="6">
<path d="M5.66663 0.275391H11V5.99935H5.66663V0.275391Z" fill="white"/>
</mask>
<g mask="url(#mask0_1545_3)">
<path d="M7.41667 5.45247H9.64583C10.0833 5.45247 10.4375 5.09831 10.4375 4.6556V1.06706C10.4375 0.629557 10.0885 0.275391 9.64583 0.275391H7.41667C6.98437 0.275391 6.625 0.629557 6.625 1.06706V4.6556C6.625 5.09831 6.97917 5.45247 7.41667 5.45247Z" fill="#3F60A0"/>
</g>
<mask id="mask1_1545_3" style="mask-type:luminance" maskUnits="userSpaceOnUse" x="19" y="0" width="6" height="6">
<path d="M19 0.275391H24.3333V5.99935H19V0.275391Z" fill="white"/>
</mask>
<g mask="url(#mask1_1545_3)">
<path d="M20.2032 5.45247H22.4323C22.8698 5.45247 23.224 5.09831 23.224 4.6556V1.06706C23.224 0.629557 22.8698 0.275391 22.4323 0.275391H20.2032C19.7657 0.275391 19.4115 0.629557 19.4115 1.06706V4.6556C19.4115 5.09831 19.7657 5.45247 20.2032 5.45247Z" fill="#3F60A0"/>
</g>
<mask id="mask2_1545_3" style="mask-type:luminance" maskUnits="userSpaceOnUse" x="0" y="2" width="30" height="27">
<path d="M0.447876 2H29.401V28.6667H0.447876V2Z" fill="white"/>
</mask>
<g mask="url(#mask2_1545_3)">
<path d="M25.224 2.90625H24.7292V4.65625C24.7292 5.92187 23.6979 6.95312 22.4323 6.95312H20.2031C18.9375 6.95312 17.9115 5.92708 17.9115 4.65625V2.90625H11.9375V4.65625C11.9375 5.92187 10.9063 6.95312 9.64583 6.95312H7.41667C6.15104 6.95312 5.11979 5.92708 5.11979 4.65625V2.90625H4.61979C2.32812 2.90625 0.453125 4.77083 0.453125 7.07292V24.3385C0.453125 26.6302 2.32812 28.5052 4.61979 28.5052H25.224C27.5156 28.5052 29.3906 26.6302 29.3906 24.3385V7.07292C29.3958 4.77083 27.5208 2.90625 25.224 2.90625ZM26.625 24.3385C26.625 25.1042 25.9896 25.7396 25.224 25.7396H4.61979C3.85417 25.7396 3.21875 25.1042 3.21875 24.3385V10.5208H26.625V24.3385Z" fill="#3F60A0"/>
</g>
<path d="M10.5052 22.6608C10.7761 22.9316 11.1302 23.0618 11.4844 23.0618C11.8386 23.0618 12.1927 22.9316 12.4636 22.6608L14.9219 20.1973L17.3855 22.6608C17.6563 22.9316 18.0105 23.0618 18.3646 23.0618C18.7188 23.0618 19.073 22.9316 19.3386 22.6608C19.8802 22.1191 19.8802 21.2441 19.3386 20.7025L16.8802 18.2441L19.3386 15.7806C19.8802 15.2389 19.8802 14.3639 19.3386 13.8223C18.8021 13.2858 17.9219 13.2858 17.3855 13.8223L14.9219 16.2858L12.4636 13.8223C11.9219 13.2858 11.0469 13.2858 10.5052 13.8223C9.96879 14.3639 9.96879 15.2389 10.5052 15.7806L12.9688 18.2441L10.5052 20.7025C9.96358 21.2441 9.96358 22.1191 10.5052 22.6608Z" fill="#3F60A0"/>
</svg>
