<svg width="30" height="30" viewBox="0 0 30 30" fill="none" xmlns="http://www.w3.org/2000/svg">
<mask id="mask0_1545_4" style="mask-type:luminance" maskUnits="userSpaceOnUse" x="0" y="0" width="30" height="30">
<path d="M0.755249 0.541016H29.7084V29.4941H0.755249V0.541016Z" fill="white"/>
</mask>
<g mask="url(#mask0_1545_4)">
<path d="M15.2344 0.541016C12.0157 0.541016 8.95837 1.58268 6.44796 3.50977V3.0931C6.44796 2.62435 6.06775 2.24414 5.599 2.24414C5.13025 2.24414 4.74483 2.62435 4.74483 3.0931C4.74483 3.10352 4.74483 5.38998 4.74483 5.38477C4.75004 6.13998 5.66671 6.52018 6.20317 5.98372C8.61462 3.57227 11.823 2.24414 15.2344 2.24414C22.2761 2.24414 28.0052 7.97331 28.0052 15.015C28.0052 22.0618 22.2761 27.791 15.2344 27.791C8.18754 27.791 2.45837 22.0618 2.45837 15.015C2.45837 13.0566 2.89067 11.1764 3.74483 9.43164C3.94796 9.00456 3.77608 8.49935 3.349 8.29102C2.92712 8.08268 2.41671 8.25976 2.21358 8.68164C1.24483 10.666 0.755249 12.7962 0.755249 15.015C0.755249 23.0202 7.22921 29.4941 15.2344 29.4941C23.2344 29.4941 29.7084 23.0202 29.7084 15.015C29.7084 7.01497 23.2344 0.541016 15.2344 0.541016Z" fill="#7D8999"/>
</g>
<path d="M15.2344 25.2344C20.8698 25.2344 25.4531 20.651 25.4531 15.0156C25.4531 9.38542 20.8698 4.79688 15.2344 4.79688C9.59896 4.79688 5.01562 9.38542 5.01562 15.0156C5.01562 20.651 9.59896 25.2344 15.2344 25.2344ZM10.4427 17.7604L14.3802 14.6094V9.90625C14.3802 9.4375 14.7604 9.05729 15.2344 9.05729C15.7031 9.05729 16.0833 9.4375 16.0833 9.90625V15.0156C16.0833 15.276 15.9687 15.5208 15.7656 15.6823L11.5052 19.0885C11.1406 19.3802 10.6042 19.3229 10.3125 18.9583C10.0156 18.5885 10.0781 18.0521 10.4427 17.7604Z" fill="#7D8999"/>
</svg>
