<svg width="30" height="30" viewBox="0 0 30 30" fill="none" xmlns="http://www.w3.org/2000/svg">
<mask id="mask0_1_25" style="mask-type:luminance" maskUnits="userSpaceOnUse" x="0" y="0" width="30" height="30">
<path d="M0.755219 0.541687H29.7083V29.4948H0.755219V0.541687Z" fill="white"/>
</mask>
<g mask="url(#mask0_1_25)">
<path d="M15.2344 0.541687C12.0156 0.541687 8.95834 1.58335 6.44793 3.51044V3.09377C6.44793 2.62502 6.06772 2.24481 5.59897 2.24481C5.13022 2.24481 4.7448 2.62502 4.7448 3.09377C4.7448 3.10419 4.7448 5.39065 4.7448 5.38544C4.75001 6.14065 5.66668 6.52085 6.20314 5.9844C8.61459 3.57294 11.8229 2.24481 15.2344 2.24481C22.2761 2.24481 28.0052 7.97398 28.0052 15.0156C28.0052 22.0625 22.2761 27.7917 15.2344 27.7917C8.18751 27.7917 2.45834 22.0625 2.45834 15.0156C2.45834 13.0573 2.89064 11.1771 3.7448 9.43231C3.94793 9.00523 3.77605 8.50002 3.34897 8.29169C2.92709 8.08335 2.41668 8.26044 2.21355 8.68231C1.2448 10.6667 0.755219 12.7969 0.755219 15.0156C0.755219 23.0209 7.22918 29.4948 15.2344 29.4948C23.2344 29.4948 29.7083 23.0209 29.7083 15.0156C29.7083 7.01565 23.2344 0.541687 15.2344 0.541687Z" fill="#3F60A0"/>
<path d="M15.2344 25.2344C20.8698 25.2344 25.4531 20.651 25.4531 15.0156C25.4531 9.38542 20.8698 4.79688 15.2344 4.79688C9.59896 4.79688 5.01562 9.38542 5.01562 15.0156C5.01562 20.651 9.59896 25.2344 15.2344 25.2344ZM10.4427 17.7604L14.3802 14.6094V9.90625C14.3802 9.4375 14.7604 9.05729 15.2344 9.05729C15.7031 9.05729 16.0833 9.4375 16.0833 9.90625V15.0156C16.0833 15.276 15.9687 15.5208 15.7656 15.6823L11.5052 19.0885C11.1406 19.3802 10.6042 19.3229 10.3125 18.9583C10.0156 18.5885 10.0781 18.0521 10.4427 17.7604Z" fill="#3F60A0"/>
</g>
</svg>
