<svg xmlns="http://www.w3.org/2000/svg" viewBox="0 0 100 100" width="200" height="200">
  <g stroke="white" stroke-width="3">
    <line x1="50" y1="5" x2="50" y2="12" />
    <line x1="75" y1="9" x2="72" y2="16" />
    <line x1="91" y1="25" x2="84" y2="28" />
    <line x1="95" y1="50" x2="88" y2="50" />
    <line x1="91" y1="75" x2="84" y2="72" />
    <line x1="75" y1="91" x2="72" y2="84" />
    <line x1="50" y1="95" x2="50" y2="88" />
    <line x1="25" y1="91" x2="28" y2="84" />
    <line x1="9" y1="75" x2="16" y2="72" />
    <line x1="5" y1="50" x2="12" y2="50" />
    <line x1="9" y1="25" x2="16" y2="28" />
    <line x1="25" y1="9" x2="28" y2="16" />
  </g>
  <g transform="translate(50,50) scale(0.15) translate(-128,-128)" fill="#CEBD7C" stroke="#CEBD7C">
    <path d="M240.58984,128a15.84794,15.84794,0,0,1-10.53125,15.03711l-63.81543,23.206-23.206,63.81543a16.001,16.001,0,0,1-30.07422,0L89.75684,166.24316l-63.81543-23.206a16.001,16.001,0,0,1,0-30.07422L89.75684,89.75684l23.20605-63.81543a16.001,16.001,0,0,1,30.07422,0l23.206,63.81543,63.81543,23.20605A15.84794,15.84794,0,0,1,240.58984,128Z"/>
  </g>
</svg>
