<svg width="886" height="147" viewBox="0 0 886 147" fill="none" xmlns="http://www.w3.org/2000/svg">
<path d="M41.9297 60.3099C37.4818 60.3099 33.6589 61.9557 30.4505 65.2474C27.2526 68.5286 25.6589 72.4766 25.6589 77.1016C25.6589 81.8099 27.2526 85.8099 30.4505 89.1016C33.6589 92.3932 37.4818 94.0391 41.9297 94.0391C44.0651 94.0391 46.086 93.7786 47.9922 93.2474C49.9089 92.7057 51.3099 92.1745 52.2005 91.6432L53.4089 90.8307L61.4089 107.247C60.7839 107.695 59.9141 108.247 58.8047 108.914C57.6901 109.581 55.1589 110.492 51.2005 111.643C47.2422 112.794 42.9974 113.372 38.4714 113.372C28.4297 113.372 19.6016 109.841 11.9922 102.768C4.39325 95.7005 0.596375 87.237 0.596375 77.3724C0.596375 67.4141 4.39325 58.862 11.9922 51.7057C19.6016 44.5547 28.4297 40.9766 38.4714 40.9766C42.9974 40.9766 47.1693 41.513 50.9922 42.5807C54.8255 43.638 57.5391 44.7005 59.138 45.7682L61.4089 47.3724L53.4089 63.4974C50.461 61.3724 46.638 60.3099 41.9297 60.3099Z" fill="black"/>
<path d="M80.7397 82.8307C85.0001 82.8307 88.6199 84.3255 91.5939 87.3099C94.5782 90.2839 96.073 93.9037 96.073 98.1641C96.073 102.346 94.5782 105.93 91.5939 108.914C88.6199 111.883 85.0001 113.372 80.7397 113.372C76.5574 113.372 72.9741 111.883 69.9897 108.914C67.0157 105.93 65.5314 102.346 65.5314 98.1641C65.5314 93.9037 67.0157 90.2839 69.9897 87.3099C72.9741 84.3255 76.5574 82.8307 80.7397 82.8307Z" fill="black"/>
<path d="M99.6588 23.3724V1.3724H176.992V23.3724H150.867V111.372H125.805V23.3724H99.6588Z" fill="black"/>
<path d="M182.843 4.85156C185.604 2.09114 188.895 0.705727 192.718 0.705727C196.552 0.705727 199.843 2.09114 202.593 4.85156C205.343 7.60156 206.718 10.888 206.718 14.7057C206.718 18.5286 205.343 21.8203 202.593 24.5807C199.843 27.3307 196.552 28.7057 192.718 28.7057C188.895 28.7057 185.604 27.3307 182.843 24.5807C180.093 21.8203 178.718 18.5286 178.718 14.7057C178.718 10.888 180.093 7.60156 182.843 4.85156ZM180.593 42.9766V111.372H204.197V42.9766H180.593Z" fill="black"/>
<path d="M215.392 111.372V42.9766H238.996V50.1641H239.267C245.392 44.0391 251.918 40.9766 258.85 40.9766C263.834 40.9766 268.501 41.9974 272.85 44.0391C277.209 46.0807 280.501 49.237 282.725 53.4974C289.652 45.1536 297.209 40.9766 305.392 40.9766C312.683 40.9766 318.944 43.0286 324.183 47.1224C329.433 51.2057 332.058 57.6016 332.058 66.3099V111.372H308.454V72.7057C308.454 69.0703 307.454 66.0286 305.454 63.5807C303.454 61.138 300.454 59.9141 296.454 59.9141C292.996 59.9141 290.35 60.9557 288.517 63.0391C286.694 65.1224 285.694 67.638 285.517 70.5807V111.372H261.933V72.7057C261.933 69.0703 260.933 66.0286 258.933 63.5807C256.933 61.138 253.933 59.9141 249.933 59.9141C246.277 59.9141 243.543 61.0495 241.725 63.3099C239.902 65.5755 238.996 68.263 238.996 71.3724V111.372H215.392Z" fill="black"/>
<path d="M410.462 80.4349H360.857C360.857 85.2422 362.41 88.8047 365.524 91.1224C368.634 93.4297 372.009 94.5807 375.649 94.5807C379.467 94.5807 382.488 94.0703 384.712 93.0391C386.93 92.013 389.467 89.9922 392.316 86.9766L409.378 95.4974C402.264 107.414 390.446 113.372 373.92 113.372C363.613 113.372 354.764 109.841 347.378 102.768C340.003 95.7005 336.316 87.1953 336.316 77.2474C336.316 67.2891 340.003 58.7578 347.378 51.6432C354.764 44.5339 363.613 40.9766 373.92 40.9766C384.764 40.9766 393.587 44.112 400.378 50.3724C407.18 56.638 410.587 65.5964 410.587 77.2474C410.587 78.8464 410.545 79.9089 410.462 80.4349ZM361.524 67.3724H387.524C386.982 63.8203 385.576 61.0911 383.316 59.1849C381.05 57.2682 378.139 56.3099 374.587 56.3099C370.67 56.3099 367.555 57.3307 365.253 59.3724C362.946 61.4141 361.701 64.0807 361.524 67.3724Z" fill="black"/>
<path d="M516.309 111.372H481.788L441.246 64.7057V111.372H416.184V1.3724H441.246V46.3099L478.975 1.3724H509.392L465.121 53.4974L516.309 111.372Z" fill="black"/>
<path d="M584.855 80.4349H535.25C535.25 85.2422 536.802 88.8047 539.917 91.1224C543.026 93.4297 546.401 94.5807 550.042 94.5807C553.86 94.5807 556.881 94.0703 559.105 93.0391C561.323 92.013 563.86 89.9922 566.709 86.9766L583.771 95.4974C576.657 107.414 564.839 113.372 548.313 113.372C538.006 113.372 529.157 109.841 521.771 102.768C514.396 95.7005 510.709 87.1953 510.709 77.2474C510.709 67.2891 514.396 58.7578 521.771 51.6432C529.157 44.5339 538.006 40.9766 548.313 40.9766C559.157 40.9766 567.98 44.112 574.771 50.3724C581.573 56.638 584.98 65.5964 584.98 77.2474C584.98 78.8464 584.938 79.9089 584.855 80.4349ZM535.917 67.3724H561.917C561.375 63.8203 559.969 61.0911 557.709 59.1849C555.443 57.2682 552.532 56.3099 548.98 56.3099C545.063 56.3099 541.948 57.3307 539.646 59.3724C537.339 61.4141 536.094 64.0807 535.917 67.3724Z" fill="black"/>
<path d="M659.785 80.4349H610.181C610.181 85.2422 611.733 88.8047 614.847 91.1224C617.957 93.4297 621.332 94.5807 624.972 94.5807C628.79 94.5807 631.811 94.0703 634.035 93.0391C636.254 92.013 638.79 89.9922 641.639 86.9766L658.702 95.4974C651.587 107.414 639.769 113.372 623.243 113.372C612.936 113.372 604.087 109.841 596.702 102.768C589.327 95.7005 585.639 87.1953 585.639 77.2474C585.639 67.2891 589.327 58.7578 596.702 51.6432C604.087 44.5339 612.936 40.9766 623.243 40.9766C634.087 40.9766 642.91 44.112 649.702 50.3724C656.504 56.638 659.91 65.5964 659.91 77.2474C659.91 78.8464 659.868 79.9089 659.785 80.4349ZM610.847 67.3724H636.847C636.306 63.8203 634.899 61.0911 632.639 59.1849C630.373 57.2682 627.462 56.3099 623.91 56.3099C619.993 56.3099 616.879 57.3307 614.577 59.3724C612.269 61.4141 611.024 64.0807 610.847 67.3724Z" fill="black"/>
<path d="M735.903 51.4557C742.304 58.4297 745.507 66.987 745.507 77.1224C745.507 87.2474 742.304 95.8255 735.903 102.852C729.496 109.867 721.366 113.372 711.507 113.372C702.434 113.372 694.97 110.529 689.111 104.831V146.039H665.507V42.9766H688.84V50.7057H689.111C694.97 44.2214 702.434 40.9766 711.507 40.9766C721.366 40.9766 729.496 44.4714 735.903 51.4557ZM715.84 88.7057C718.908 85.6797 720.444 81.8099 720.444 77.1016C720.444 72.3932 718.97 68.5547 716.028 65.5807C713.095 62.5964 709.236 61.1016 704.444 61.1016C699.819 61.1016 696.012 62.6172 693.028 65.6432C690.054 68.6589 688.569 72.4766 688.569 77.1016C688.569 81.8099 690.101 85.6797 693.173 88.7057C696.241 91.737 699.996 93.2474 704.444 93.2474C708.97 93.2474 712.767 91.737 715.84 88.7057Z" fill="black"/>
<path d="M820.312 80.4349H770.707C770.707 85.2422 772.26 88.8047 775.374 91.1224C778.483 93.4297 781.858 94.5807 785.499 94.5807C789.317 94.5807 792.338 94.0703 794.562 93.0391C796.78 92.013 799.317 89.9922 802.166 86.9766L819.228 95.4974C812.114 107.414 800.296 113.372 783.77 113.372C773.463 113.372 764.614 109.841 757.228 102.768C749.853 95.7005 746.166 87.1953 746.166 77.2474C746.166 67.2891 749.853 58.7578 757.228 51.6432C764.614 44.5339 773.463 40.9766 783.77 40.9766C794.614 40.9766 803.437 44.112 810.228 50.3724C817.03 56.638 820.437 65.5964 820.437 77.2474C820.437 78.8464 820.395 79.9089 820.312 80.4349ZM771.374 67.3724H797.374C796.832 63.8203 795.426 61.0911 793.166 59.1849C790.9 57.2682 787.989 56.3099 784.437 56.3099C780.52 56.3099 777.405 57.3307 775.103 59.3724C772.796 61.4141 771.551 64.0807 771.374 67.3724Z" fill="black"/>
<path d="M826.034 111.372V42.9766H849.638V52.8307H849.909C850.075 52.487 850.356 52.0495 850.763 51.5182C851.164 50.9766 852.034 50.0391 853.367 48.7057C854.7 47.3724 856.122 46.1745 857.638 45.1016C859.148 44.0339 861.101 43.0807 863.492 42.2474C865.893 41.4036 868.336 40.9766 870.825 40.9766C873.409 40.9766 875.94 41.3307 878.429 42.0391C880.914 42.7474 882.742 43.4557 883.909 44.1641L885.763 45.2474L875.909 65.2474C872.961 62.7474 868.872 61.4974 863.638 61.4974C860.789 61.4974 858.346 62.1224 856.304 63.3724C854.263 64.6224 852.815 66.138 851.971 67.9141C851.122 69.6953 850.518 71.2057 850.159 72.4557C849.81 73.6953 849.638 74.6641 849.638 75.3724V111.372H826.034Z" fill="black"/>
</svg>
