<svg width="886" height="146" viewBox="0 0 886 146" fill="none" xmlns="http://www.w3.org/2000/svg">
<path d="M41.3333 59.6041C36.8854 59.6041 33.0625 61.2499 29.8542 64.5416C26.6563 67.8228 25.0625 71.7708 25.0625 76.3958C25.0625 81.1041 26.6563 85.1041 29.8542 88.3958C33.0625 91.6874 36.8854 93.3333 41.3333 93.3333C43.4688 93.3333 45.4896 93.0728 47.3958 92.5416C49.3125 91.9999 50.7135 91.4687 51.6042 90.9374L52.8125 90.1249L60.8125 106.542C60.1875 106.99 59.3177 107.542 58.2083 108.208C57.0938 108.875 54.5625 109.786 50.6042 110.937C46.6458 112.088 42.401 112.667 37.875 112.667C27.8333 112.667 19.0052 109.135 11.3958 102.062C3.79687 94.9947 0 86.5312 0 76.6666C0 66.7083 3.79687 58.1562 11.3958 50.9999C19.0052 43.8489 27.8333 40.2708 37.875 40.2708C42.401 40.2708 46.5729 40.8072 50.3958 41.8749C54.2292 42.9322 56.9427 43.9947 58.5417 45.0624L60.8125 46.6666L52.8125 62.7916C49.8646 60.6666 46.0417 59.6041 41.3333 59.6041Z" fill="white"/>
<path d="M80.1434 82.125C84.4038 82.125 88.0236 83.6198 90.9976 86.6042C93.9819 89.5781 95.4767 93.1979 95.4767 97.4583C95.4767 101.641 93.9819 105.224 90.9976 108.208C88.0236 111.177 84.4038 112.667 80.1434 112.667C75.9611 112.667 72.3778 111.177 69.3934 108.208C66.4194 105.224 64.9351 101.641 64.9351 97.4583C64.9351 93.1979 66.4194 89.5781 69.3934 86.6042C72.3778 83.6198 75.9611 82.125 80.1434 82.125Z" fill="white"/>
<path d="M99.0624 22.6667V0.666748H176.396V22.6667H150.271V110.667H125.208V22.6667H99.0624Z" fill="white"/>
<path d="M182.247 4.14583C185.007 1.38542 188.299 0 192.122 0C195.955 0 199.247 1.38542 201.997 4.14583C204.747 6.89583 206.122 10.1823 206.122 14C206.122 17.8229 204.747 21.1146 201.997 23.875C199.247 26.625 195.955 28 192.122 28C188.299 28 185.007 26.625 182.247 23.875C179.497 21.1146 178.122 17.8229 178.122 14C178.122 10.1823 179.497 6.89583 182.247 4.14583ZM179.997 42.2708V110.667H203.601V42.2708H179.997Z" fill="white"/>
<path d="M214.795 110.667V42.2708H238.399V49.4583H238.67C244.795 43.3333 251.321 40.2708 258.254 40.2708C263.238 40.2708 267.905 41.2916 272.254 43.3333C276.613 45.3749 279.905 48.5312 282.129 52.7916C289.056 44.4478 296.613 40.2708 304.795 40.2708C312.087 40.2708 318.347 42.3228 323.587 46.4166C328.837 50.4999 331.462 56.8958 331.462 65.6041V110.667H307.858V71.9999C307.858 68.3645 306.858 65.3228 304.858 62.8749C302.858 60.4322 299.858 59.2083 295.858 59.2083C292.399 59.2083 289.754 60.2499 287.92 62.3333C286.097 64.4166 285.097 66.9322 284.92 69.8749V110.667H261.337V71.9999C261.337 68.3645 260.337 65.3228 258.337 62.8749C256.337 60.4322 253.337 59.2083 249.337 59.2083C245.681 59.2083 242.946 60.3437 241.129 62.6041C239.306 64.8697 238.399 67.5572 238.399 70.6666V110.667H214.795Z" fill="white"/>
<path d="M409.865 79.7291H360.261C360.261 84.5364 361.813 88.0989 364.928 90.4166C368.037 92.7239 371.412 93.8749 375.053 93.8749C378.871 93.8749 381.891 93.3645 384.115 92.3333C386.334 91.3072 388.871 89.2864 391.719 86.2708L408.782 94.7916C401.667 106.708 389.85 112.667 373.324 112.667C363.016 112.667 354.167 109.135 346.782 102.062C339.407 94.9947 335.719 86.4895 335.719 76.5416C335.719 66.5833 339.407 58.052 346.782 50.9374C354.167 43.828 363.016 40.2708 373.324 40.2708C384.167 40.2708 392.99 43.4062 399.782 49.6666C406.584 55.9322 409.99 64.8905 409.99 76.5416C409.99 78.1405 409.949 79.203 409.865 79.7291ZM360.928 66.6666H386.928C386.386 63.1145 384.98 60.3853 382.719 58.4791C380.454 56.5624 377.542 55.6041 373.99 55.6041C370.074 55.6041 366.959 56.6249 364.657 58.6666C362.35 60.7083 361.105 63.3749 360.928 66.6666Z" fill="white"/>
<path d="M515.712 110.667H481.191L440.65 64.0001V110.667H415.587V0.666748H440.65V45.6042L478.379 0.666748H508.796L464.525 52.7917L515.712 110.667Z" fill="white"/>
<path d="M584.258 79.7291H534.654C534.654 84.5364 536.206 88.0989 539.321 90.4166C542.43 92.7239 545.805 93.8749 549.446 93.8749C553.263 93.8749 556.284 93.3645 558.508 92.3333C560.727 91.3072 563.263 89.2864 566.112 86.2708L583.175 94.7916C576.06 106.708 564.243 112.667 547.717 112.667C537.409 112.667 528.56 109.135 521.175 102.062C513.8 94.9947 510.112 86.4895 510.112 76.5416C510.112 66.5833 513.8 58.052 521.175 50.9374C528.56 43.828 537.409 40.2708 547.717 40.2708C558.56 40.2708 567.383 43.4062 574.175 49.6666C580.977 55.9322 584.383 64.8905 584.383 76.5416C584.383 78.1405 584.342 79.203 584.258 79.7291ZM535.321 66.6666H561.321C560.779 63.1145 559.373 60.3853 557.112 58.4791C554.847 56.5624 551.935 55.6041 548.383 55.6041C544.467 55.6041 541.352 56.6249 539.05 58.6666C536.743 60.7083 535.498 63.3749 535.321 66.6666Z" fill="white"/>
<path d="M659.188 79.7291H609.584C609.584 84.5364 611.136 88.0989 614.251 90.4166C617.36 92.7239 620.735 93.8749 624.376 93.8749C628.194 93.8749 631.215 93.3645 633.438 92.3333C635.657 91.3072 638.194 89.2864 641.043 86.2708L658.105 94.7916C650.991 106.708 639.173 112.667 622.647 112.667C612.34 112.667 603.491 109.135 596.105 102.062C588.73 94.9947 585.043 86.4895 585.043 76.5416C585.043 66.5833 588.73 58.052 596.105 50.9374C603.491 43.828 612.34 40.2708 622.647 40.2708C633.491 40.2708 642.313 43.4062 649.105 49.6666C655.907 55.9322 659.313 64.8905 659.313 76.5416C659.313 78.1405 659.272 79.203 659.188 79.7291ZM610.251 66.6666H636.251C635.709 63.1145 634.303 60.3853 632.043 58.4791C629.777 56.5624 626.866 55.6041 623.313 55.6041C619.397 55.6041 616.282 56.6249 613.98 58.6666C611.673 60.7083 610.428 63.3749 610.251 66.6666Z" fill="white"/>
<path d="M735.306 50.7499C741.707 57.7239 744.91 66.2812 744.91 76.4166C744.91 86.5416 741.707 95.1197 735.306 102.146C728.9 109.161 720.77 112.667 710.91 112.667C701.837 112.667 694.374 109.823 688.515 104.125V145.333H664.91V42.2708H688.244V49.9999H688.515C694.374 43.5155 701.837 40.2708 710.91 40.2708C720.77 40.2708 728.9 43.7655 735.306 50.7499ZM715.244 87.9999C718.311 84.9739 719.848 81.1041 719.848 76.3958C719.848 71.6874 718.374 67.8489 715.431 64.8749C712.499 61.8905 708.64 60.3958 703.848 60.3958C699.223 60.3958 695.416 61.9114 692.431 64.9374C689.457 67.953 687.973 71.7708 687.973 76.3958C687.973 81.1041 689.504 84.9739 692.577 87.9999C695.645 91.0312 699.4 92.5416 703.848 92.5416C708.374 92.5416 712.171 91.0312 715.244 87.9999Z" fill="white"/>
<path d="M819.715 79.7291H770.111C770.111 84.5364 771.663 88.0989 774.778 90.4166C777.887 92.7239 781.262 93.8749 784.903 93.8749C788.72 93.8749 791.741 93.3645 793.965 92.3333C796.184 91.3072 798.72 89.2864 801.569 86.2708L818.632 94.7916C811.517 106.708 799.7 112.667 783.174 112.667C772.866 112.667 764.017 109.135 756.632 102.062C749.257 94.9947 745.569 86.4895 745.569 76.5416C745.569 66.5833 749.257 58.052 756.632 50.9374C764.017 43.828 772.866 40.2708 783.174 40.2708C794.017 40.2708 802.84 43.4062 809.632 49.6666C816.434 55.9322 819.84 64.8905 819.84 76.5416C819.84 78.1405 819.799 79.203 819.715 79.7291ZM770.778 66.6666H796.778C796.236 63.1145 794.83 60.3853 792.569 58.4791C790.304 56.5624 787.392 55.6041 783.84 55.6041C779.924 55.6041 776.809 56.6249 774.507 58.6666C772.2 60.7083 770.955 63.3749 770.778 66.6666Z" fill="white"/>
<path d="M825.437 110.667V42.2708H849.041V52.1249H849.312C849.479 51.7812 849.76 51.3437 850.166 50.8124C850.567 50.2708 851.437 49.3333 852.771 47.9999C854.104 46.6666 855.526 45.4687 857.041 44.3958C858.552 43.328 860.505 42.3749 862.896 41.5416C865.297 40.6978 867.739 40.2708 870.229 40.2708C872.812 40.2708 875.343 40.6249 877.833 41.3333C880.317 42.0416 882.146 42.7499 883.312 43.4583L885.166 44.5416L875.312 64.5416C872.364 62.0416 868.276 60.7916 863.041 60.7916C860.192 60.7916 857.75 61.4166 855.708 62.6666C853.666 63.9166 852.218 65.4322 851.375 67.2083C850.526 68.9895 849.922 70.4999 849.562 71.7499C849.213 72.9895 849.041 73.9583 849.041 74.6666V110.667H825.437Z" fill="white"/>
</svg>
