<svg width="41" height="41" viewBox="0 0 41 41" fill="none" xmlns="http://www.w3.org/2000/svg">
<mask id="mask0_169_6" style="mask-type:luminance" maskUnits="userSpaceOnUse" x="0" y="0" width="41" height="41">
<path d="M0.333313 0.229248H40.2708V40.1667H0.333313V0.229248Z" fill="white"/>
</mask>
<g mask="url(#mask0_169_6)">
<path d="M40.2708 20.198C40.2708 21.5105 40.1458 22.8074 39.8906 24.0938C39.6302 25.3803 39.2552 26.6303 38.75 27.8386C38.25 29.0522 37.6354 30.2032 36.9062 31.2917C36.1771 32.3803 35.3489 33.3907 34.4219 34.3178C33.4948 35.2449 32.4896 36.073 31.3958 36.8022C30.3073 37.5313 29.1562 38.1459 27.9427 38.6459C26.7344 39.1511 25.4844 39.5261 24.1979 39.7813C22.9114 40.0417 21.6146 40.1667 20.3021 40.1667C18.9896 40.1667 17.6927 40.0417 16.4062 39.7813C15.1198 39.5261 13.8698 39.1511 12.6614 38.6459C11.4479 38.1459 10.2969 37.5313 9.20831 36.8022C8.11977 36.073 7.10935 35.2449 6.18227 34.3178C5.25519 33.3907 4.42706 32.3803 3.6979 31.2917C2.96873 30.2032 2.35415 29.0522 1.85415 27.8386C1.35415 26.6303 0.973939 25.3803 0.71873 24.0938C0.463522 22.8074 0.333313 21.5105 0.333313 20.198C0.333313 18.8855 0.463522 17.5886 0.71873 16.3022C0.973939 15.0157 1.35415 13.7657 1.85415 12.5574C2.35415 11.3438 2.96873 10.1928 3.6979 9.10425C4.42706 8.01571 5.25519 7.00529 6.18227 6.07821C7.10935 5.15112 8.11977 4.323 9.20831 3.59383C10.2969 2.86467 11.4479 2.25008 12.6614 1.75008C13.8698 1.24487 15.1198 0.869873 16.4062 0.614665C17.6927 0.354247 18.9896 0.229248 20.3021 0.229248C21.6146 0.229248 22.9114 0.354247 24.1979 0.614665C25.4844 0.869873 26.7344 1.24487 27.9427 1.75008C29.1562 2.25008 30.3073 2.86467 31.3958 3.59383C32.4896 4.323 33.4948 5.15112 34.4219 6.07821C35.3489 7.00529 36.1771 8.01571 36.9062 9.10425C37.6354 10.1928 38.25 11.3438 38.75 12.5574C39.2552 13.7657 39.6302 15.0157 39.8906 16.3022C40.1458 17.5886 40.2708 18.8855 40.2708 20.198Z" fill="#E38E49"/>
</g>
<path d="M25.4115 9.0104C24.3958 5.11978 12.8438 3.57811 11.3073 12.8437C9.76564 22.1146 4.32814 29.8437 16.5938 31.7187C28.8646 33.5937 31.4896 29.0573 30.7396 23.0885C29.9896 17.125 28.599 8.65624 25.4115 9.0104Z" fill="#002C5C"/>
<mask id="mask1_169_6" style="mask-type:luminance" maskUnits="userSpaceOnUse" x="5" y="24" width="30" height="17">
<path d="M5.66669 24H35V40.1667H5.66669V24Z" fill="white"/>
</mask>
<g mask="url(#mask1_169_6)">
<path d="M34.6406 34.1095C34.1771 34.5886 33.6875 35.0417 33.1771 35.474C32.6667 35.9011 32.1354 36.3074 31.5885 36.6824C31.0365 37.0574 30.4688 37.4063 29.8854 37.7292C29.3021 38.047 28.6979 38.3386 28.0833 38.5938C27.474 38.8542 26.8438 39.0834 26.2083 39.2813C25.5729 39.4792 24.9271 39.6459 24.276 39.7761C23.6198 39.9063 22.9635 40.0105 22.2969 40.073C21.6354 40.1407 20.9688 40.172 20.3021 40.172C19.6354 40.172 18.9687 40.1407 18.3073 40.073C17.6458 40.0105 16.9844 39.9063 16.3333 39.7761C15.6771 39.6459 15.0313 39.4792 14.3958 39.2813C13.7604 39.0834 13.1354 38.8542 12.5208 38.5938C11.9063 38.3386 11.3073 38.047 10.7188 37.7292C10.1354 37.4063 9.56771 37.0574 9.01562 36.6824C8.46875 36.3074 7.9375 35.9011 7.42708 35.474C6.91667 35.0417 6.43229 34.5886 5.96875 34.1095C6.5625 32.7032 7.34896 31.4115 8.32292 30.2292C9.30208 29.0522 10.4271 28.0417 11.7031 27.198C12.9792 26.3542 14.349 25.7084 15.8125 25.2657C17.276 24.8282 18.7708 24.6042 20.3021 24.6042C21.8333 24.6042 23.3281 24.8282 24.7969 25.2657C26.2604 25.7084 27.6302 26.3542 28.9062 27.198C30.1771 28.0417 31.3021 29.0522 32.2812 30.2292C33.2604 31.4115 34.0417 32.7032 34.6406 34.1095Z" fill="#3F60A0"/>
</g>
<path d="M20.2969 20.198C20.6667 20.198 21.026 20.2709 21.3698 20.4115C21.7135 20.5574 22.0208 20.7605 22.2812 21.0209C22.5469 21.2865 22.75 21.5886 22.8906 21.9324C23.0365 22.2761 23.1094 22.6355 23.1094 23.0105V25.4897C23.1094 25.8647 23.0365 26.224 22.8906 26.5678C22.75 26.9115 22.5469 27.2136 22.2812 27.4792C22.0208 27.7397 21.7135 27.9428 21.3698 28.0886C21.026 28.2292 20.6667 28.3022 20.2969 28.3022C19.9219 28.3022 19.5625 28.2292 19.2188 28.0886C18.875 27.9428 18.5729 27.7397 18.3073 27.4792C18.0417 27.2136 17.8385 26.9115 17.6979 26.5678C17.5521 26.224 17.4844 25.8647 17.4844 25.4897V23.0105C17.4844 22.6355 17.5521 22.2761 17.6979 21.9324C17.8385 21.5886 18.0417 21.2865 18.3073 21.0209C18.5729 20.7605 18.875 20.5574 19.2188 20.4115C19.5625 20.2709 19.9219 20.198 20.2969 20.198Z" fill="#E38E49"/>
<path d="M15.1719 18.4271C15.1719 18.6615 15.125 18.8906 15.0365 19.1042C14.9427 19.3229 14.8177 19.5156 14.651 19.6823C14.4844 19.849 14.2917 19.974 14.0729 20.0677C13.8594 20.1563 13.6302 20.2031 13.3958 20.2031C13.1615 20.2031 12.9375 20.1563 12.7188 20.0677C12.5 19.974 12.3073 19.849 12.1406 19.6823C11.9792 19.5156 11.849 19.3229 11.7604 19.1042C11.6667 18.8906 11.625 18.6615 11.625 18.4271C11.625 18.1927 11.6667 17.9687 11.7604 17.75C11.849 17.5313 11.9792 17.3385 12.1406 17.1719C12.3073 17.0052 12.5 16.8802 12.7188 16.7917C12.9375 16.6979 13.1615 16.6562 13.3958 16.6562C13.6302 16.6562 13.8594 16.6979 14.0729 16.7917C14.2917 16.8802 14.4844 17.0052 14.651 17.1719C14.8177 17.3385 14.9427 17.5313 15.0365 17.75C15.125 17.9687 15.1719 18.1927 15.1719 18.4271Z" fill="#E38E49"/>
<path d="M28.8021 18.4271C28.8021 18.6615 28.7552 18.8906 28.6666 19.1042C28.5781 19.3229 28.4479 19.5156 28.2812 19.6823C28.1146 19.849 27.9219 19.974 27.7083 20.0677C27.4896 20.1563 27.2656 20.2031 27.026 20.2031C26.7916 20.2031 26.5677 20.1563 26.3489 20.0677C26.1302 19.974 25.9427 19.849 25.776 19.6823C25.6094 19.5156 25.4791 19.3229 25.3906 19.1042C25.3021 18.8906 25.2552 18.6615 25.2552 18.4271C25.2552 18.1927 25.3021 17.9687 25.3906 17.75C25.4791 17.5313 25.6094 17.3385 25.776 17.1719C25.9427 17.0052 26.1302 16.8802 26.3489 16.7917C26.5677 16.6979 26.7916 16.6562 27.026 16.6562C27.2656 16.6562 27.4896 16.6979 27.7083 16.7917C27.9219 16.8802 28.1146 17.0052 28.2812 17.1719C28.4479 17.3385 28.5781 17.5313 28.6666 17.75C28.7552 17.9687 28.8021 18.1927 28.8021 18.4271Z" fill="#E38E49"/>
<path d="M20.3021 9.0105C20.7552 9.0105 21.2031 9.05216 21.651 9.14071C22.0937 9.22925 22.526 9.35946 22.9479 9.53133C23.3646 9.70841 23.7604 9.92196 24.1406 10.172C24.5156 10.422 24.8646 10.7084 25.1875 11.0313C25.5052 11.349 25.7916 11.698 26.0469 12.0782C26.2969 12.4532 26.5104 12.8542 26.6823 13.2709C26.8541 13.6876 26.9896 14.1199 27.0781 14.5678C27.1666 15.0105 27.2083 15.4584 27.2083 15.9115V17.698C27.2083 18.1511 27.1666 18.6042 27.0781 19.047C26.9896 19.4897 26.8541 19.922 26.6823 20.3438C26.5104 20.7605 26.2969 21.1615 26.0469 21.5365C25.7916 21.9115 25.5052 22.2605 25.1875 22.5834C24.8646 22.9011 24.5156 23.1876 24.1406 23.4428C23.7604 23.6928 23.3646 23.9063 22.9479 24.0782C22.526 24.2553 22.0937 24.3855 21.651 24.474C21.2031 24.5626 20.7552 24.6042 20.3021 24.6042C19.8489 24.6042 19.401 24.5626 18.9531 24.474C18.5104 24.3855 18.0781 24.2553 17.6614 24.0782C17.2396 23.9063 16.8437 23.6928 16.4635 23.4428C16.0885 23.1876 15.7396 22.9011 15.4219 22.5834C15.0989 22.2605 14.8125 21.9115 14.5625 21.5365C14.3073 21.1615 14.0937 20.7605 13.9219 20.3438C13.75 19.922 13.6198 19.4897 13.5312 19.047C13.4427 18.6042 13.3958 18.1511 13.3958 17.698V15.9115C13.3958 15.4584 13.4427 15.0105 13.5312 14.5678C13.6198 14.1199 13.75 13.6876 13.9219 13.2709C14.0937 12.8542 14.3073 12.4532 14.5625 12.0782C14.8125 11.698 15.0989 11.349 15.4219 11.0313C15.7396 10.7084 16.0885 10.422 16.4635 10.172C16.8437 9.92196 17.2396 9.70841 17.6614 9.53133C18.0781 9.35946 18.5104 9.22925 18.9531 9.14071C19.401 9.05216 19.8489 9.0105 20.3021 9.0105Z" fill="#FBCE9D"/>
<path d="M13.3958 16.6563C22.6719 16.75 25.2552 11.4948 25.2552 11.4948C25.2552 11.4948 25.6927 15.6979 27.2083 16.8073C28 12.3958 25.6719 8.38022 19.6354 8.08335C13.5938 7.78126 11.9636 14.6823 13.3958 16.6563Z" fill="#002C5C"/>
</svg>
