<svg width="40" height="39" viewBox="0 0 40 39" fill="none" xmlns="http://www.w3.org/2000/svg">
<mask id="mask0_169_7" style="mask-type:luminance" maskUnits="userSpaceOnUse" x="0" y="0" width="40" height="39">
<path d="M0.666687 0H39.2709V38.6667H0.666687V0Z" fill="white"/>
</mask>
<g mask="url(#mask0_169_7)">
<path d="M38.901 19.6302C38.901 20.5625 38.8333 21.4948 38.6927 22.4219C38.5521 23.3489 38.349 24.2604 38.0729 25.1562C37.8021 26.0521 37.4635 26.9219 37.0625 27.7656C36.6563 28.6146 36.1979 29.4271 35.6719 30.2031C35.151 30.9792 34.5729 31.7135 33.9375 32.401C33.3073 33.0937 32.625 33.7344 31.901 34.3229C31.1719 34.9167 30.4063 35.4479 29.599 35.9271C28.7917 36.401 27.9583 36.8177 27.0885 37.1667C26.2188 37.5208 25.3281 37.8073 24.4219 38.026C23.5104 38.2448 22.5885 38.3958 21.6563 38.4792C20.724 38.5625 19.7865 38.5781 18.8542 38.5208C17.9167 38.4635 16.9948 38.3437 16.0781 38.1458C15.1615 37.9531 14.2604 37.6979 13.3854 37.3698C12.5052 37.0417 11.6563 36.651 10.8385 36.2031C10.0156 35.75 9.23438 35.2396 8.48959 34.6719C7.7448 34.1042 7.04688 33.4792 6.39584 32.8073C5.85938 32.2552 5.35417 31.6719 4.89063 31.0573C4.42188 30.4375 3.9948 29.7969 3.60938 29.1302C3.21875 28.4635 2.875 27.7708 2.57292 27.0625C2.27084 26.3542 2.01042 25.625 1.79688 24.8854C1.57813 24.1458 1.41146 23.3906 1.29167 22.6302C1.16667 21.8646 1.09375 21.0989 1.0625 20.3281C1.03646 19.5573 1.05209 18.7864 1.1198 18.0156C1.1823 17.2448 1.29688 16.4844 1.45313 15.7292C1.61459 14.9739 1.81771 14.2292 2.06771 13.5C2.31771 12.7708 2.61459 12.0573 2.94792 11.3594C3.28646 10.6667 3.66667 9.99478 4.08334 9.34895C4.50521 8.69791 4.96355 8.07812 5.45834 7.48436C5.95313 6.89062 6.48438 6.33332 7.04688 5.80728C7.60938 5.27603 8.20313 4.78645 8.82813 4.33332C9.45313 3.87499 10.1042 3.46353 10.776 3.08853C11.4531 2.71353 12.1458 2.3802 12.8646 2.08853C13.5781 1.79687 14.3073 1.55207 15.0573 1.35416C15.8021 1.15103 16.5573 0.994782 17.3177 0.890615C18.0833 0.78124 18.8542 0.718739 19.625 0.703115C20.3958 0.692698 21.1667 0.723949 21.9375 0.802073C22.7031 0.885407 23.4635 1.01041 24.2188 1.18228C24.9688 1.35416 25.7083 1.57291 26.4323 1.83853C27.1615 2.10416 27.8646 2.40624 28.5573 2.76041C29.2448 3.10937 29.9063 3.49999 30.5469 3.93228C31.1875 4.36457 31.8021 4.83332 32.3854 5.33853C32.9688 5.84374 33.5156 6.38541 34.0313 6.95832C34.5521 7.53124 35.0313 8.13541 35.474 8.76562C35.9167 9.40103 36.3177 10.0573 36.6823 10.7396C37.0469 11.4219 37.3646 12.1198 37.6406 12.8437C37.9167 13.5625 38.151 14.2969 38.3385 15.0469C38.526 15.7969 38.6667 16.5521 38.7604 17.3177C38.8542 18.0885 38.901 18.8542 38.901 19.6302Z" fill="#3F60A0"/>
</g>
<path d="M33.5677 32.8073C32.6823 33.7188 31.7187 34.5313 30.6719 35.2448C29.6302 35.9636 28.5208 36.5677 27.3541 37.0573C26.1875 37.5521 24.9844 37.9271 23.7448 38.1771C22.5 38.4271 21.25 38.5521 19.9791 38.5521C18.7135 38.5521 17.4583 38.4271 16.2187 38.1771C14.9791 37.9271 13.7708 37.5521 12.6041 37.0573C11.4375 36.5677 10.3333 35.9636 9.28644 35.2448C8.23956 34.5313 7.27602 33.7188 6.39581 32.8073C6.95831 31.474 7.70311 30.25 8.63019 29.1355C9.55727 28.0157 10.625 27.0573 11.8333 26.2605C13.0364 25.4584 14.3385 24.849 15.7239 24.4271C17.1146 24.0105 18.5312 23.8021 19.9791 23.8021C21.4323 23.8021 22.8489 24.0105 24.2344 24.4271C25.625 24.849 26.9219 25.4584 28.1302 26.2605C29.3385 27.0573 30.4062 28.0157 31.3333 29.1355C32.2552 30.25 33 31.474 33.5677 32.8073Z" fill="white"/>
<path d="M19.974 19.625C20.3281 19.625 20.6667 19.6927 20.9948 19.8281C21.3177 19.9635 21.6094 20.1562 21.8594 20.4062C22.1094 20.6562 22.3021 20.9427 22.4375 21.2708C22.5677 21.599 22.6354 21.9375 22.6354 22.2917V24.6406C22.6354 24.9948 22.5677 25.3333 22.4375 25.6615C22.3021 25.9844 22.1094 26.276 21.8594 26.526C21.6094 26.776 21.3177 26.9687 20.9948 27.099C20.6667 27.2344 20.3281 27.3021 19.974 27.3021C19.6198 27.3021 19.2813 27.2344 18.9531 27.099C18.625 26.9687 18.3386 26.776 18.0886 26.526C17.8386 26.276 17.6459 25.9844 17.5104 25.6615C17.375 25.3333 17.3073 24.9948 17.3073 24.6406V22.2917C17.3073 21.9375 17.375 21.599 17.5104 21.2708C17.6459 20.9427 17.8386 20.6562 18.0886 20.4062C18.3386 20.1562 18.625 19.9635 18.9531 19.8281C19.2813 19.6927 19.6198 19.625 19.974 19.625Z" fill="#FBCE9D"/>
<path d="M14.2344 19.625C9.36461 17.2552 9.72919 10.1042 13.0834 9.11461C13.4844 6.07295 22.125 4.33857 26.3959 7.01045C30.6615 9.67711 29.3854 16.8802 26.0209 17.599" fill="#002C5C"/>
<path d="M15.1146 17.9479C15.1146 18.1719 15.0729 18.3854 14.9896 18.5885C14.9062 18.7969 14.7812 18.9792 14.625 19.1354C14.4687 19.2917 14.2864 19.4167 14.0781 19.5C13.875 19.5833 13.6614 19.6302 13.4375 19.6302C13.2135 19.6302 13 19.5833 12.7916 19.5C12.5885 19.4167 12.4062 19.2917 12.25 19.1354C12.0885 18.9792 11.9687 18.7969 11.8854 18.5885C11.7969 18.3854 11.7552 18.1719 11.7552 17.9479C11.7552 17.724 11.7969 17.5104 11.8854 17.3073C11.9687 17.099 12.0885 16.9167 12.25 16.7604C12.4062 16.6042 12.5885 16.4792 12.7916 16.3958C13 16.3125 13.2135 16.2656 13.4375 16.2656C13.6614 16.2656 13.875 16.3125 14.0781 16.3958C14.2864 16.4792 14.4687 16.6042 14.625 16.7604C14.7812 16.9167 14.9062 17.099 14.9896 17.3073C15.0729 17.5104 15.1146 17.724 15.1146 17.9479Z" fill="#FBCE9D"/>
<path d="M28.0312 17.9479C28.0312 18.1719 27.9896 18.3854 27.9062 18.5885C27.8229 18.7969 27.6979 18.9792 27.5417 19.1354C27.3854 19.2917 27.2031 19.4167 26.9948 19.5C26.7917 19.5833 26.5781 19.6302 26.3542 19.6302C26.1302 19.6302 25.9167 19.5833 25.7083 19.5C25.5052 19.4167 25.3229 19.2917 25.1667 19.1354C25.0104 18.9792 24.8854 18.7969 24.8021 18.5885C24.7135 18.3854 24.6719 18.1719 24.6719 17.9479C24.6719 17.724 24.7135 17.5104 24.8021 17.3073C24.8854 17.099 25.0104 16.9167 25.1667 16.7604C25.3229 16.6042 25.5052 16.4792 25.7083 16.3958C25.9167 16.3125 26.1302 16.2656 26.3542 16.2656C26.5781 16.2656 26.7917 16.3125 26.9948 16.3958C27.2031 16.4792 27.3854 16.6042 27.5417 16.7604C27.6979 16.9167 27.8229 17.099 27.9062 17.3073C27.9896 17.5104 28.0312 17.724 28.0312 17.9479Z" fill="#FBCE9D"/>
<path d="M19.9792 9.02087C20.4115 9.02087 20.8333 9.06254 21.2552 9.14587C21.6771 9.22921 22.0885 9.35421 22.4844 9.52087C22.8802 9.68233 23.2604 9.88546 23.6146 10.125C23.974 10.3646 24.3021 10.6355 24.6094 10.9375C24.9115 11.2396 25.1823 11.573 25.4219 11.9323C25.6615 12.2865 25.8646 12.6667 26.026 13.0625C26.1927 13.4584 26.3125 13.8698 26.401 14.2865C26.4844 14.7084 26.526 15.1355 26.526 15.5677V17.2552C26.526 17.6875 26.4844 18.1146 26.401 18.5365C26.3125 18.9532 26.1927 19.3646 26.026 19.7605C25.8646 20.1563 25.6615 20.5365 25.4219 20.8907C25.1823 21.25 24.9115 21.5834 24.6094 21.8855C24.3021 22.1875 23.974 22.4584 23.6146 22.698C23.2604 22.9375 22.8802 23.1407 22.4844 23.3021C22.0885 23.4688 21.6771 23.5938 21.2552 23.6771C20.8333 23.7605 20.4115 23.8021 19.9792 23.8021C19.5521 23.8021 19.125 23.7605 18.7031 23.6771C18.2813 23.5938 17.875 23.4688 17.474 23.3021C17.0781 23.1407 16.7031 22.9375 16.3438 22.698C15.9896 22.4584 15.6563 22.1875 15.3542 21.8855C15.0521 21.5834 14.776 21.25 14.5417 20.8907C14.3021 20.5365 14.099 20.1563 13.9323 19.7605C13.7708 19.3646 13.6458 18.9532 13.5625 18.5365C13.4792 18.1146 13.4375 17.6875 13.4375 17.2552V15.5677C13.4375 15.1355 13.4792 14.7084 13.5625 14.2865C13.6458 13.8698 13.7708 13.4584 13.9323 13.0625C14.099 12.6667 14.3021 12.2865 14.5417 11.9323C14.776 11.573 15.0521 11.2396 15.3542 10.9375C15.6563 10.6355 15.9896 10.3646 16.3438 10.125C16.7031 9.88546 17.0781 9.68233 17.474 9.52087C17.875 9.35421 18.2813 9.22921 18.7031 9.14587C19.125 9.06254 19.5521 9.02087 19.9792 9.02087Z" fill="#FBCE9D"/>
<path d="M13.4375 17.2553C15.8021 17.2553 16.3333 12.8386 16.3333 12.8386C16.3333 12.8386 16.7031 16.1251 26.526 15.5678C26.526 15.5678 27.25 11.0574 24.7604 9.45839C22.2708 7.85943 15.8333 8.89068 13.8802 10.9532C11.9271 13.0157 13.4375 17.2553 13.4375 17.2553Z" fill="#002C5C"/>
</svg>
