<svg width="21" height="21" viewBox="0 0 21 21" fill="none" xmlns="http://www.w3.org/2000/svg">
<mask id="mask0_169_4" style="mask-type:luminance" maskUnits="userSpaceOnUse" x="0" y="0" width="19" height="21">
<path d="M0.265625 0.666748H18.6667V20.1824H0.265625V0.666748Z" fill="white"/>
</mask>
<g mask="url(#mask0_169_4)">
<path d="M17.0312 18.6562H1.78646V3.41146H10.9323V1.89062H1.78646C0.947917 1.89062 0.265625 2.57292 0.265625 3.41146V18.6562C0.265625 19.5 0.947917 20.1823 1.78646 20.1823H17.0312C17.8698 20.1823 18.5521 19.5 18.5521 18.6562V9.51042H17.0312V18.6562Z" fill="#576574"/>
</g>
<path d="M6.35938 14.1094H9.56771L17.3438 6.33337L14.1146 3.099L6.35938 10.849V14.1094Z" fill="#576574"/>
<mask id="mask1_169_4" style="mask-type:luminance" maskUnits="userSpaceOnUse" x="14" y="0" width="7" height="7">
<path d="M14.6666 0.213623H20.2291V6.00008H14.6666V0.213623Z" fill="white"/>
</mask>
<g mask="url(#mask1_169_4)">
<path d="M19.6302 1.89063L18.5521 0.8125C17.9583 0.213542 16.9948 0.213542 16.401 0.8125L15.1927 2.02083L18.4219 5.25521L19.6302 4.04688C20.2291 3.44792 20.2291 2.48437 19.6302 1.89063Z" fill="#576574"/>
</g>
</svg>
